  0
SECTION
  2
HEADER
  9
$ACADVER
  1
AC1014
  9
$HANDSEED
  5
FFFF
  9
$MEASUREMENT
 70
     1
  0
ENDSEC
  0
SECTION
  2
TABLES
  0
TABLE
  2
VPORT
  5
8
330
0
100
AcDbSymbolTable
 70
     4
  0
VPORT
  5
2E
330
8
100
AcDbSymbolTableRecord
100
AcDbViewportTableRecord
  2
*ACTIVE
 70
     0
 10
0.0
 20
0.0
 11
1.0
 21
1.0
 12
210.0
 22
148.5
 13
0.0
 23
0.0
 14
10.0
 24
10.0
 15
10.0
 25
10.0
 16
0.0
 26
0.0
 36
1.0
 17
0.0
 27
0.0
 37
0.0
 40
341.0
 41
1.24
 42
50.0
 43
0.0
 44
0.0
 50
0.0
 51
0.0
 71
     0
 72
   100
 73
     1
 74
     3
 75
     0
 76
     0
 77
     0
 78
     0
  0
ENDTAB
  0
TABLE
  2
LTYPE
  5
5
330
0
100
AcDbSymbolTable
 70
     1
  0
LTYPE
  5
14
330
5
100
AcDbSymbolTableRecord
100
AcDbLinetypeTableRecord
  2
BYBLOCK
 70
     0
  3

 72
    65
 73
     0
 40
0.0
  0
LTYPE
  5
15
330
5
100
AcDbSymbolTableRecord
100
AcDbLinetypeTableRecord
  2
BYLAYER
 70
     0
  3

 72
    65
 73
     0
 40
0.0
  0
LTYPE
  5
16
330
5
100
AcDbSymbolTableRecord
100
AcDbLinetypeTableRecord
  2
CONTINUOUS
 70
     0
  3
Solid line
 72
    65
 73
     0
 40
0.0
  0
ENDTAB
  0
TABLE
  2
LAYER
  5
2
100
AcDbSymbolTable
 70
1
  0
LAYER
  5
50
100
AcDbSymbolTableRecord
100
AcDbLayerTableRecord
  2
0
 70
0
  6
CONTINUOUS
  0
ENDTAB
  0
TABLE
  2
STYLE
  5
3
330
0
100
AcDbSymbolTable
 70
     1
  0
STYLE
  5
11
330
3
100
AcDbSymbolTableRecord
100
AcDbTextStyleTableRecord
  2
STANDARD
 70
     0
 40
0.0
 41
1.0
 50
0.0
 71
     0
 42
2.5
  3
txt
  4

  0
ENDTAB
  0
TABLE
  2
VIEW
  5
6
330
0
100
AcDbSymbolTable
 70
     0
  0
ENDTAB
  0
TABLE
  2
UCS
  5
7
330
0
100
AcDbSymbolTable
 70
     0
  0
ENDTAB
  0
TABLE
  2
APPID
  5
9
330
0
100
AcDbSymbolTable
 70
     2
  0
APPID
  5
12
330
9
100
AcDbSymbolTableRecord
100
AcDbRegAppTableRecord
  2
ACAD
 70
     0
  0
ENDTAB
  0
TABLE
  2
DIMSTYLE
  5
A
330
0
100
AcDbSymbolTable
 70
     1
  0
DIMSTYLE
105
27
330
A
100
AcDbSymbolTableRecord
100
AcDbDimStyleTableRecord
  2
ISO-25
 70
     0
  3

  4

  5

  6

  7

 40
1.0
 41
2.5
 42
0.625
 43
3.75
 44
1.25
 45
0.0
 46
0.0
 47
0.0
 48
0.0
140
2.5
141
2.5
142
0.0
143
0.03937007874016
144
1.0
145
0.0
146
1.0
147
0.625
 71
     0
 72
     0
 73
     0
 74
     0
 75
     0
 76
     0
 77
     1
 78
     8
170
     0
171
     3
172
     1
173
     0
174
     0
175
     0
176
     0
177
     0
178
     0
270
     2
271
     2
272
     2
273
     2
274
     3
340
11
275
     0
280
     0
281
     0
282
     0
283
     0
284
     8
285
     0
286
     0
287
     3
288
     0
  0
ENDTAB
  0
TABLE
  2
BLOCK_RECORD
  5
1
330
0
100
AcDbSymbolTable
 70
     1
  0
BLOCK_RECORD
  5
1F
330
1
100
AcDbSymbolTableRecord
100
AcDbBlockTableRecord
  2
*MODEL_SPACE
  0
BLOCK_RECORD
  5
1B
330
1
100
AcDbSymbolTableRecord
100
AcDbBlockTableRecord
  2
*PAPER_SPACE
  0
ENDTAB
  0
ENDSEC
  0
SECTION
  2
BLOCKS
  0
BLOCK
  5
20
330
1F
100
AcDbEntity
  8
0
100
AcDbBlockBegin
  2
*MODEL_SPACE
 70
     0
 10
0.0
 20
0.0
 30
0.0
  3
*MODEL_SPACE
  1

  0
ENDBLK
  5
21
330
1F
100
AcDbEntity
  8
0
100
AcDbBlockEnd
  0
BLOCK
  5
1C
330
1B
100
AcDbEntity
 67
     1
  8
0
100
AcDbBlockBegin
  2
*PAPER_SPACE
  1

  0
ENDBLK
  5
1D
330
1B
100
AcDbEntity
 67
     1
  8
0
100
AcDbBlockEnd
  0
ENDSEC
  0
SECTION
  2
ENTITIES
  0
LWPOLYLINE
  5
100
100
AcDbEntity
  8
0
 62
7
100
AcDbPolyline
 90
10
 70
0
 10
0.000000
 20
51.082222
 30
0.0
 10
0.000000
 20
102.164444
 30
0.0
 10
51.082222
 20
102.164444
 30
0.0
 10
102.164444
 20
102.164444
 30
0.0
 10
102.164444
 20
51.082222
 30
0.0
 10
102.164444
 20
0.000000
 30
0.0
 10
51.082222
 20
0.000000
 30
0.0
 10
0.000000
 20
0.000000
 30
0.0
 10
0.000000
 20
51.082222
 30
0.0
 10
0.000000
 20
51.082222
 30
0.0
  0
LWPOLYLINE
  5
101
100
AcDbEntity
  8
0
 62
7
100
AcDbPolyline
 90
10
 70
0
 10
101.882222
 20
51.082222
 30
0.0
 10
101.882222
 20
101.882222
 30
0.0
 10
51.082222
 20
101.882222
 30
0.0
 10
0.282222
 20
101.882222
 30
0.0
 10
0.282222
 20
51.082222
 30
0.0
 10
0.282222
 20
0.282222
 30
0.0
 10
51.082222
 20
0.282222
 30
0.0
 10
101.882222
 20
0.282222
 30
0.0
 10
101.882222
 20
51.082222
 30
0.0
 10
101.882222
 20
51.082222
 30
0.0
  0
SPLINE
  5
102
100
AcDbEntity
  8
0
 62
7
100
AcDbSpline
 70
8
 71
3
 72
8
 73
4
 74
0
 40
0
 40
0
 40
0
 40
0
 40
1
 40
1
 40
1
 40
1
 10
34.713333
 20
71.882000
 30
0.0
 10
34.713333
 20
69.338865
 30
0.0
 10
34.604122
 20
68.019233
 30
0.0
 10
34.374667
 20
67.789778
 30
0.0
  0
SPLINE
  5
103
100
AcDbEntity
  8
0
 62
7
100
AcDbSpline
 70
8
 71
3
 72
8
 73
4
 74
0
 40
0
 40
0
 40
0
 40
0
 40
1
 40
1
 40
1
 40
1
 10
34.374667
 20
67.789778
 30
0.0
 10
34.127502
 20
67.542613
 30
0.0
 10
31.916198
 20
67.451111
 30
0.0
 10
26.190222
 20
67.451111
 30
0.0
  0
LWPOLYLINE
  5
104
100
AcDbEntity
  8
0
 62
7
100
AcDbPolyline
 90
9
 70
0
 10
10.160000
 20
51.082222
 30
0.0
 10
10.160000
 20
92.004444
 30
0.0
 10
14.252222
 20
92.004444
 30
0.0
 10
18.344444
 20
92.004444
 30
0.0
 10
18.344444
 20
83.820000
 30
0.0
 10
18.344444
 20
75.635556
 30
0.0
 10
26.528889
 20
75.635556
 30
0.0
 10
34.713333
 20
75.635556
 30
0.0
 10
34.713333
 20
71.882000
 30
0.0
  0
SPLINE
  5
105
100
AcDbEntity
  8
0
 62
7
100
AcDbSpline
 70
8
 71
3
 72
8
 73
4
 74
0
 40
0
 40
0
 40
0
 40
0
 40
1
 40
1
 40
1
 40
1
 10
22.098000
 20
34.713333
 30
0.0
 10
24.641136
 20
34.713333
 30
0.0
 10
25.960766
 20
34.604122
 30
0.0
 10
26.190222
 20
34.374667
 30
0.0
  0
SPLINE
  5
106
100
AcDbEntity
  8
0
 62
7
100
AcDbSpline
 70
8
 71
3
 72
8
 73
4
 74
0
 40
0
 40
0
 40
0
 40
0
 40
1
 40
1
 40
1
 40
1
 10
26.190222
 20
34.374667
 30
0.0
 10
26.658405
 20
33.906485
 30
0.0
 10
26.658405
 20
27.335737
 30
0.0
 10
26.190222
 20
26.867556
 30
0.0
  0
SPLINE
  5
107
100
AcDbEntity
  8
0
 62
7
100
AcDbSpline
 70
8
 71
3
 72
8
 73
4
 74
0
 40
0
 40
0
 40
0
 40
0
 40
1
 40
1
 40
1
 40
1
 10
26.190222
 20
26.867556
 30
0.0
 10
25.960766
 20
26.638100
 30
0.0
 10
24.641136
 20
26.528889
 30
0.0
 10
22.098000
 20
26.528889
 30
0.0
  0
LWPOLYLINE
  5
108
100
AcDbEntity
  8
0
 62
7
100
AcDbPolyline
 90
5
 70
0
 10
26.190222
 20
67.451111
 30
0.0
 10
18.344444
 20
67.451111
 30
0.0
 10
18.344444
 20
51.082222
 30
0.0
 10
18.344444
 20
34.713333
 30
0.0
 10
22.098000
 20
34.713333
 30
0.0
  0
SPLINE
  5
109
100
AcDbEntity
  8
0
 62
7
100
AcDbSpline
 70
8
 71
3
 72
8
 73
4
 74
0
 40
0
 40
0
 40
0
 40
0
 40
1
 40
1
 40
1
 40
1
 10
26.528889
 20
22.098000
 30
0.0
 10
26.528889
 20
24.641135
 30
0.0
 10
26.638100
 20
25.960767
 30
0.0
 10
26.867556
 20
26.190222
 30
0.0
  0
SPLINE
  5
10a
100
AcDbEntity
  8
0
 62
7
100
AcDbSpline
 70
8
 71
3
 72
8
 73
4
 74
0
 40
0
 40
0
 40
0
 40
0
 40
1
 40
1
 40
1
 40
1
 10
26.867556
 20
26.190222
 30
0.0
 10
27.093644
 20
26.416310
 30
0.0
 10
28.341382
 20
26.528889
 30
0.0
 10
30.621111
 20
26.528889
 30
0.0
  0
SPLINE
  5
10b
100
AcDbEntity
  8
0
 62
7
100
AcDbSpline
 70
8
 71
3
 72
8
 73
4
 74
0
 40
0
 40
0
 40
0
 40
0
 40
1
 40
1
 40
1
 40
1
 10
30.621111
 20
26.528889
 30
0.0
 10
32.900840
 20
26.528889
 30
0.0
 10
34.148578
 20
26.416310
 30
0.0
 10
34.374667
 20
26.190222
 30
0.0
  0
SPLINE
  5
10c
100
AcDbEntity
  8
0
 62
7
100
AcDbSpline
 70
8
 71
3
 72
8
 73
4
 74
0
 40
0
 40
0
 40
0
 40
0
 40
1
 40
1
 40
1
 40
1
 10
34.374667
 20
26.190222
 30
0.0
 10
34.604122
 20
25.960767
 30
0.0
 10
34.713333
 20
24.641135
 30
0.0
 10
34.713333
 20
22.098000
 30
0.0
  0
LWPOLYLINE
  5
10d
100
AcDbEntity
  8
0
 62
7
100
AcDbPolyline
 90
7
 70
0
 10
22.098000
 20
26.528889
 30
0.0
 10
18.344444
 20
26.528889
 30
0.0
 10
18.344444
 20
22.436667
 30
0.0
 10
18.344444
 20
18.344444
 30
0.0
 10
22.436667
 20
18.344444
 30
0.0
 10
26.528889
 20
18.344444
 30
0.0
 10
26.528889
 20
22.098000
 30
0.0
  0
SPLINE
  5
10e
100
AcDbEntity
  8
0
 62
7
100
AcDbSpline
 70
8
 71
3
 72
8
 73
4
 74
0
 40
0
 40
0
 40
0
 40
0
 40
1
 40
1
 40
1
 40
1
 10
75.635556
 20
38.466889
 30
0.0
 10
75.635556
 20
41.010024
 30
0.0
 10
75.744767
 20
42.329656
 30
0.0
 10
75.974222
 20
42.559111
 30
0.0
  0
SPLINE
  5
10f
100
AcDbEntity
  8
0
 62
7
100
AcDbSpline
 70
8
 71
3
 72
8
 73
4
 74
0
 40
0
 40
0
 40
0
 40
0
 40
1
 40
1
 40
1
 40
1
 10
75.974222
 20
42.559111
 30
0.0
 10
76.442403
 20
43.027292
 30
0.0
 10
83.013152
 20
43.027292
 30
0.0
 10
83.481333
 20
42.559111
 30
0.0
  0
SPLINE
  5
110
100
AcDbEntity
  8
0
 62
7
100
AcDbSpline
 70
8
 71
3
 72
8
 73
4
 74
0
 40
0
 40
0
 40
0
 40
0
 40
1
 40
1
 40
1
 40
1
 10
83.481333
 20
42.559111
 30
0.0
 10
83.710788
 20
42.329656
 30
0.0
 10
83.820000
 20
41.010024
 30
0.0
 10
83.820000
 20
38.466889
 30
0.0
  0
LWPOLYLINE
  5
111
100
AcDbEntity
  8
0
 62
7
100
AcDbPolyline
 90
9
 70
0
 10
34.713333
 20
22.098000
 30
0.0
 10
34.713333
 20
18.344444
 30
0.0
 10
46.990000
 20
18.344444
 30
0.0
 10
59.266667
 20
18.344444
 30
0.0
 10
59.266667
 20
26.528889
 30
0.0
 10
59.266667
 20
34.713333
 30
0.0
 10
67.451111
 20
34.713333
 30
0.0
 10
75.635556
 20
34.713333
 30
0.0
 10
75.635556
 20
38.466889
 30
0.0
  0
SPLINE
  5
112
100
AcDbEntity
  8
0
 62
7
100
AcDbSpline
 70
8
 71
3
 72
8
 73
4
 74
0
 40
0
 40
0
 40
0
 40
0
 40
1
 40
1
 40
1
 40
1
 10
35.052000
 20
26.867556
 30
0.0
 10
34.583819
 20
27.335737
 30
0.0
 10
34.583819
 20
33.906485
 30
0.0
 10
35.052000
 20
34.374667
 30
0.0
  0
SPLINE
  5
113
100
AcDbEntity
  8
0
 62
7
100
AcDbSpline
 70
8
 71
3
 72
8
 73
4
 74
0
 40
0
 40
0
 40
0
 40
0
 40
1
 40
1
 40
1
 40
1
 10
35.052000
 20
34.374667
 30
0.0
 10
35.281455
 20
34.604122
 30
0.0
 10
36.601087
 20
34.713333
 30
0.0
 10
39.144222
 20
34.713333
 30
0.0
  0
LWPOLYLINE
  5
114
100
AcDbEntity
  8
0
 62
7
100
AcDbPolyline
 90
18
 70
0
 10
83.820000
 20
38.466889
 30
0.0
 10
83.820000
 20
34.713333
 30
0.0
 10
87.912222
 20
34.713333
 30
0.0
 10
92.004444
 20
34.713333
 30
0.0
 10
92.004444
 20
30.621111
 30
0.0
 10
92.004444
 20
26.528889
 30
0.0
 10
87.912222
 20
26.528889
 30
0.0
 10
83.820000
 20
26.528889
 30
0.0
 10
83.820000
 20
22.436667
 30
0.0
 10
83.820000
 20
18.344444
 30
0.0
 10
87.912222
 20
18.344444
 30
0.0
 10
92.004444
 20
18.344444
 30
0.0
 10
92.004444
 20
14.252222
 30
0.0
 10
92.004444
 20
10.160000
 30
0.0
 10
51.082222
 20
10.160000
 30
0.0
 10
10.160000
 20
10.160000
 30
0.0
 10
10.160000
 20
51.082222
 30
0.0
 10
10.160000
 20
51.082222
 30
0.0
  0
SPLINE
  5
115
100
AcDbEntity
  8
0
 62
7
100
AcDbSpline
 70
8
 71
3
 72
8
 73
4
 74
0
 40
0
 40
0
 40
0
 40
0
 40
1
 40
1
 40
1
 40
1
 10
39.144222
 20
26.528889
 30
0.0
 10
36.601087
 20
26.528889
 30
0.0
 10
35.281455
 20
26.638100
 30
0.0
 10
35.052000
 20
26.867556
 30
0.0
  0
LWPOLYLINE
  5
116
100
AcDbEntity
  8
0
 62
7
100
AcDbPolyline
 90
5
 70
0
 10
39.144222
 20
34.713333
 30
0.0
 10
42.897778
 20
34.713333
 30
0.0
 10
42.897778
 20
30.621111
 30
0.0
 10
42.897778
 20
26.528889
 30
0.0
 10
39.144222
 20
26.528889
 30
0.0
  0
SPLINE
  5
117
100
AcDbEntity
  8
0
 62
7
100
AcDbSpline
 70
8
 71
3
 72
8
 73
4
 74
0
 40
0
 40
0
 40
0
 40
0
 40
1
 40
1
 40
1
 40
1
 10
26.867556
 20
35.052000
 30
0.0
 10
26.638100
 20
35.281455
 30
0.0
 10
26.528889
 20
36.601087
 30
0.0
 10
26.528889
 20
39.144222
 30
0.0
  0
LWPOLYLINE
  5
118
100
AcDbEntity
  8
0
 62
7
100
AcDbPolyline
 90
2
 70
0
 10
35.052000
 20
26.867556
 30
0.0
 10
35.052000
 20
26.867556
 30
0.0
  0
SPLINE
  5
119
100
AcDbEntity
  8
0
 62
7
100
AcDbSpline
 70
8
 71
3
 72
8
 73
4
 74
0
 40
0
 40
0
 40
0
 40
0
 40
1
 40
1
 40
1
 40
1
 10
34.713333
 20
39.144222
 30
0.0
 10
34.713333
 20
36.601087
 30
0.0
 10
34.604122
 20
35.281455
 30
0.0
 10
34.374667
 20
35.052000
 30
0.0
  0
SPLINE
  5
11a
100
AcDbEntity
  8
0
 62
7
100
AcDbSpline
 70
8
 71
3
 72
8
 73
4
 74
0
 40
0
 40
0
 40
0
 40
0
 40
1
 40
1
 40
1
 40
1
 10
34.374667
 20
35.052000
 30
0.0
 10
34.148578
 20
34.825912
 30
0.0
 10
32.900840
 20
34.713333
 30
0.0
 10
30.621111
 20
34.713333
 30
0.0
  0
SPLINE
  5
11b
100
AcDbEntity
  8
0
 62
7
100
AcDbSpline
 70
8
 71
3
 72
8
 73
4
 74
0
 40
0
 40
0
 40
0
 40
0
 40
1
 40
1
 40
1
 40
1
 10
30.621111
 20
34.713333
 30
0.0
 10
28.341382
 20
34.713333
 30
0.0
 10
27.093644
 20
34.825912
 30
0.0
 10
26.867556
 20
35.052000
 30
0.0
  0
LWPOLYLINE
  5
11c
100
AcDbEntity
  8
0
 62
7
100
AcDbPolyline
 90
5
 70
0
 10
26.528889
 20
39.144222
 30
0.0
 10
26.528889
 20
42.897778
 30
0.0
 10
30.621111
 20
42.897778
 30
0.0
 10
34.713333
 20
42.897778
 30
0.0
 10
34.713333
 20
39.144222
 30
0.0
  0
LWPOLYLINE
  5
11d
100
AcDbEntity
  8
0
 62
7
100
AcDbPolyline
 90
2
 70
0
 10
26.867556
 20
35.052000
 30
0.0
 10
26.867556
 20
35.052000
 30
0.0
  0
SPLINE
  5
11e
100
AcDbEntity
  8
0
 62
7
100
AcDbSpline
 70
8
 71
3
 72
8
 73
4
 74
0
 40
0
 40
0
 40
0
 40
0
 40
1
 40
1
 40
1
 40
1
 10
34.713333
 20
63.020222
 30
0.0
 10
34.713333
 20
65.563358
 30
0.0
 10
34.822545
 20
66.882989
 30
0.0
 10
35.052000
 20
67.112444
 30
0.0
  0
SPLINE
  5
11f
100
AcDbEntity
  8
0
 62
7
100
AcDbSpline
 70
8
 71
3
 72
8
 73
4
 74
0
 40
0
 40
0
 40
0
 40
0
 40
1
 40
1
 40
1
 40
1
 10
35.052000
 20
67.112444
 30
0.0
 10
35.298431
 20
67.358875
 30
0.0
 10
37.435209
 20
67.451111
 30
0.0
 10
42.897778
 20
67.451111
 30
0.0
  0
SPLINE
  5
120
100
AcDbEntity
  8
0
 62
7
100
AcDbSpline
 70
8
 71
3
 72
8
 73
4
 74
0
 40
0
 40
0
 40
0
 40
0
 40
1
 40
1
 40
1
 40
1
 10
42.897778
 20
67.451111
 30
0.0
 10
48.360347
 20
67.451111
 30
0.0
 10
50.497125
 20
67.358875
 30
0.0
 10
50.743556
 20
67.112444
 30
0.0
  0
SPLINE
  5
121
100
AcDbEntity
  8
0
 62
7
100
AcDbSpline
 70
8
 71
3
 72
8
 73
4
 74
0
 40
0
 40
0
 40
0
 40
0
 40
1
 40
1
 40
1
 40
1
 10
50.743556
 20
67.112444
 30
0.0
 10
50.973011
 20
66.882989
 30
0.0
 10
51.082222
 20
65.563358
 30
0.0
 10
51.082222
 20
63.020222
 30
0.0
  0
LWPOLYLINE
  5
122
100
AcDbEntity
  8
0
 62
7
100
AcDbPolyline
 90
5
 70
0
 10
42.897778
 20
51.082222
 30
0.0
 10
42.897778
 20
59.266667
 30
0.0
 10
38.805556
 20
59.266667
 30
0.0
 10
34.713333
 20
59.266667
 30
0.0
 10
34.713333
 20
63.020222
 30
0.0
  0
SPLINE
  5
123
100
AcDbEntity
  8
0
 62
7
100
AcDbSpline
 70
8
 71
3
 72
8
 73
4
 74
0
 40
0
 40
0
 40
0
 40
0
 40
1
 40
1
 40
1
 40
1
 10
54.835778
 20
59.266667
 30
0.0
 10
57.378913
 20
59.266667
 30
0.0
 10
58.698545
 20
59.157455
 30
0.0
 10
58.928000
 20
58.928000
 30
0.0
  0
SPLINE
  5
124
100
AcDbEntity
  8
0
 62
7
100
AcDbSpline
 70
8
 71
3
 72
8
 73
4
 74
0
 40
0
 40
0
 40
0
 40
0
 40
1
 40
1
 40
1
 40
1
 10
58.928000
 20
58.928000
 30
0.0
 10
59.157455
 20
58.698545
 30
0.0
 10
59.266667
 20
57.378913
 30
0.0
 10
59.266667
 20
54.835778
 30
0.0
  0
LWPOLYLINE
  5
125
100
AcDbEntity
  8
0
 62
7
100
AcDbPolyline
 90
3
 70
0
 10
51.082222
 20
63.020222
 30
0.0
 10
51.082222
 20
59.266667
 30
0.0
 10
54.835778
 20
59.266667
 30
0.0
  0
LWPOLYLINE
  5
126
100
AcDbEntity
  8
0
 62
7
100
AcDbPolyline
 90
10
 70
0
 10
59.266667
 20
54.835778
 30
0.0
 10
59.266667
 20
51.082222
 30
0.0
 10
55.174444
 20
51.082222
 30
0.0
 10
51.082222
 20
51.082222
 30
0.0
 10
51.082222
 20
46.990000
 30
0.0
 10
51.082222
 20
42.897778
 30
0.0
 10
46.990000
 20
42.897778
 30
0.0
 10
42.897778
 20
42.897778
 30
0.0
 10
42.897778
 20
51.082222
 30
0.0
 10
42.897778
 20
51.082222
 30
0.0
  0
SPLINE
  5
127
100
AcDbEntity
  8
0
 62
7
100
AcDbSpline
 70
8
 71
3
 72
8
 73
4
 74
0
 40
0
 40
0
 40
0
 40
0
 40
1
 40
1
 40
1
 40
1
 10
75.635556
 20
47.328667
 30
0.0
 10
75.635556
 20
44.785531
 30
0.0
 10
75.526344
 20
43.465900
 30
0.0
 10
75.296889
 20
43.236444
 30
0.0
  0
SPLINE
  5
128
100
AcDbEntity
  8
0
 62
7
100
AcDbSpline
 70
8
 71
3
 72
8
 73
4
 74
0
 40
0
 40
0
 40
0
 40
0
 40
1
 40
1
 40
1
 40
1
 10
75.296889
 20
43.236444
 30
0.0
 10
75.067434
 20
43.006989
 30
0.0
 10
73.747802
 20
42.897778
 30
0.0
 10
71.204667
 20
42.897778
 30
0.0
  0
LWPOLYLINE
  5
129
100
AcDbEntity
  8
0
 62
7
100
AcDbPolyline
 90
5
 70
0
 10
67.451111
 20
46.990000
 30
0.0
 10
67.451111
 20
51.082222
 30
0.0
 10
71.543333
 20
51.082222
 30
0.0
 10
75.635556
 20
51.082222
 30
0.0
 10
75.635556
 20
47.328667
 30
0.0
  0
SPLINE
  5
12a
100
AcDbEntity
  8
0
 62
7
100
AcDbSpline
 70
8
 71
3
 72
8
 73
4
 74
0
 40
0
 40
0
 40
0
 40
0
 40
1
 40
1
 40
1
 40
1
 10
84.158667
 20
43.236444
 30
0.0
 10
83.929212
 20
43.465900
 30
0.0
 10
83.820000
 20
44.785531
 30
0.0
 10
83.820000
 20
47.328667
 30
0.0
  0
LWPOLYLINE
  5
12b
100
AcDbEntity
  8
0
 62
7
100
AcDbPolyline
 90
4
 70
0
 10
71.204667
 20
42.897778
 30
0.0
 10
67.451111
 20
42.897778
 30
0.0
 10
67.451111
 20
46.990000
 30
0.0
 10
67.451111
 20
46.990000
 30
0.0
  0
SPLINE
  5
12c
100
AcDbEntity
  8
0
 62
7
100
AcDbSpline
 70
8
 71
3
 72
8
 73
4
 74
0
 40
0
 40
0
 40
0
 40
0
 40
1
 40
1
 40
1
 40
1
 10
88.250889
 20
42.897778
 30
0.0
 10
85.707753
 20
42.897778
 30
0.0
 10
84.388122
 20
43.006989
 30
0.0
 10
84.158667
 20
43.236444
 30
0.0
  0
LWPOLYLINE
  5
12d
100
AcDbEntity
  8
0
 62
7
100
AcDbPolyline
 90
7
 70
0
 10
83.820000
 20
47.328667
 30
0.0
 10
83.820000
 20
51.082222
 30
0.0
 10
87.912222
 20
51.082222
 30
0.0
 10
92.004444
 20
51.082222
 30
0.0
 10
92.004444
 20
46.990000
 30
0.0
 10
92.004444
 20
42.897778
 30
0.0
 10
88.250889
 20
42.897778
 30
0.0
  0
SPLINE
  5
12e
100
AcDbEntity
  8
0
 62
7
100
AcDbSpline
 70
8
 71
3
 72
8
 73
4
 74
0
 40
0
 40
0
 40
0
 40
0
 40
1
 40
1
 40
1
 40
1
 10
59.605333
 20
59.605333
 30
0.0
 10
59.379245
 20
59.831422
 30
0.0
 10
59.266667
 20
61.079160
 30
0.0
 10
59.266667
 20
63.358889
 30
0.0
  0
SPLINE
  5
12f
100
AcDbEntity
  8
0
 62
7
100
AcDbSpline
 70
8
 71
3
 72
8
 73
4
 74
0
 40
0
 40
0
 40
0
 40
0
 40
1
 40
1
 40
1
 40
1
 10
59.266667
 20
63.358889
 30
0.0
 10
59.266667
 20
65.638618
 30
0.0
 10
59.379245
 20
66.886356
 30
0.0
 10
59.605333
 20
67.112444
 30
0.0
  0
SPLINE
  5
130
100
AcDbEntity
  8
0
 62
7
100
AcDbSpline
 70
8
 71
3
 72
8
 73
4
 74
0
 40
0
 40
0
 40
0
 40
0
 40
1
 40
1
 40
1
 40
1
 10
59.605333
 20
67.112444
 30
0.0
 10
60.073515
 20
67.580626
 30
0.0
 10
66.644263
 20
67.580626
 30
0.0
 10
67.112444
 20
67.112444
 30
0.0
  0
SPLINE
  5
131
100
AcDbEntity
  8
0
 62
7
100
AcDbSpline
 70
8
 71
3
 72
8
 73
4
 74
0
 40
0
 40
0
 40
0
 40
0
 40
1
 40
1
 40
1
 40
1
 10
67.112444
 20
67.112444
 30
0.0
 10
67.341900
 20
66.882989
 30
0.0
 10
67.451111
 20
65.563358
 30
0.0
 10
67.451111
 20
63.020222
 30
0.0
  0
LWPOLYLINE
  5
132
100
AcDbEntity
  8
0
 62
7
100
AcDbPolyline
 90
2
 70
0
 10
84.158667
 20
43.236444
 30
0.0
 10
84.158667
 20
43.236444
 30
0.0
  0
SPLINE
  5
133
100
AcDbEntity
  8
0
 62
7
100
AcDbSpline
 70
8
 71
3
 72
8
 73
4
 74
0
 40
0
 40
0
 40
0
 40
0
 40
1
 40
1
 40
1
 40
1
 10
63.697556
 20
59.266667
 30
0.0
 10
61.154420
 20
59.266667
 30
0.0
 10
59.834788
 20
59.375878
 30
0.0
 10
59.605333
 20
59.605333
 30
0.0
  0
LWPOLYLINE
  5
134
100
AcDbEntity
  8
0
 62
7
100
AcDbPolyline
 90
3
 70
0
 10
67.451111
 20
63.020222
 30
0.0
 10
67.451111
 20
59.266667
 30
0.0
 10
63.697556
 20
59.266667
 30
0.0
  0
SPLINE
  5
135
100
AcDbEntity
  8
0
 62
7
100
AcDbSpline
 70
8
 71
3
 72
8
 73
4
 74
0
 40
0
 40
0
 40
0
 40
0
 40
1
 40
1
 40
1
 40
1
 10
75.635556
 20
63.020222
 30
0.0
 10
75.635556
 20
65.563358
 30
0.0
 10
75.744767
 20
66.882989
 30
0.0
 10
75.974222
 20
67.112444
 30
0.0
  0
SPLINE
  5
136
100
AcDbEntity
  8
0
 62
7
100
AcDbSpline
 70
8
 71
3
 72
8
 73
4
 74
0
 40
0
 40
0
 40
0
 40
0
 40
1
 40
1
 40
1
 40
1
 10
75.974222
 20
67.112444
 30
0.0
 10
76.221387
 20
67.359609
 30
0.0
 10
78.432691
 20
67.451111
 30
0.0
 10
84.158667
 20
67.451111
 30
0.0
  0
LWPOLYLINE
  5
137
100
AcDbEntity
  8
0
 62
7
100
AcDbPolyline
 90
2
 70
0
 10
59.605333
 20
59.605333
 30
0.0
 10
59.605333
 20
59.605333
 30
0.0
  0
SPLINE
  5
138
100
AcDbEntity
  8
0
 62
7
100
AcDbSpline
 70
8
 71
3
 72
8
 73
4
 74
0
 40
0
 40
0
 40
0
 40
0
 40
1
 40
1
 40
1
 40
1
 10
51.420889
 20
67.789778
 30
0.0
 10
51.174458
 20
68.036209
 30
0.0
 10
51.082222
 20
70.172986
 30
0.0
 10
51.082222
 20
75.635556
 30
0.0
  0
SPLINE
  5
139
100
AcDbEntity
  8
0
 62
7
100
AcDbSpline
 70
8
 71
3
 72
8
 73
4
 74
0
 40
0
 40
0
 40
0
 40
0
 40
1
 40
1
 40
1
 40
1
 10
51.082222
 20
75.635556
 30
0.0
 10
51.082222
 20
81.098124
 30
0.0
 10
51.174458
 20
83.234902
 30
0.0
 10
51.420889
 20
83.481333
 30
0.0
  0
SPLINE
  5
13a
100
AcDbEntity
  8
0
 62
7
100
AcDbSpline
 70
8
 71
3
 72
8
 73
4
 74
0
 40
0
 40
0
 40
0
 40
0
 40
1
 40
1
 40
1
 40
1
 10
51.420889
 20
83.481333
 30
0.0
 10
51.650344
 20
83.710789
 30
0.0
 10
52.969976
 20
83.820000
 30
0.0
 10
55.513111
 20
83.820000
 30
0.0
  0
LWPOLYLINE
  5
13b
100
AcDbEntity
  8
0
 62
7
100
AcDbPolyline
 90
8
 70
0
 10
84.158667
 20
67.451111
 30
0.0
 10
92.004444
 20
67.451111
 30
0.0
 10
92.004444
 20
63.358889
 30
0.0
 10
92.004444
 20
59.266667
 30
0.0
 10
83.820000
 20
59.266667
 30
0.0
 10
75.635556
 20
59.266667
 30
0.0
 10
75.635556
 20
63.020222
 30
0.0
 10
75.635556
 20
63.020222
 30
0.0
  0
SPLINE
  5
13c
100
AcDbEntity
  8
0
 62
7
100
AcDbSpline
 70
8
 71
3
 72
8
 73
4
 74
0
 40
0
 40
0
 40
0
 40
0
 40
1
 40
1
 40
1
 40
1
 10
67.451111
 20
84.158667
 30
0.0
 10
67.451111
 20
78.432691
 30
0.0
 10
67.359609
 20
76.221387
 30
0.0
 10
67.112444
 20
75.974222
 30
0.0
  0
SPLINE
  5
13d
100
AcDbEntity
  8
0
 62
7
100
AcDbSpline
 70
8
 71
3
 72
8
 73
4
 74
0
 40
0
 40
0
 40
0
 40
0
 40
1
 40
1
 40
1
 40
1
 10
67.112444
 20
75.974222
 30
0.0
 10
66.882989
 20
75.744766
 30
0.0
 10
65.563358
 20
75.635556
 30
0.0
 10
63.020222
 20
75.635556
 30
0.0
  0
LWPOLYLINE
  5
13e
100
AcDbEntity
  8
0
 62
7
100
AcDbPolyline
 90
7
 70
0
 10
55.513111
 20
83.820000
 30
0.0
 10
59.266667
 20
83.820000
 30
0.0
 10
59.266667
 20
87.912222
 30
0.0
 10
59.266667
 20
92.004444
 30
0.0
 10
63.358889
 20
92.004444
 30
0.0
 10
67.451111
 20
92.004444
 30
0.0
 10
67.451111
 20
84.158667
 30
0.0
  0
SPLINE
  5
13f
100
AcDbEntity
  8
0
 62
7
100
AcDbSpline
 70
8
 71
3
 72
8
 73
4
 74
0
 40
0
 40
0
 40
0
 40
0
 40
1
 40
1
 40
1
 40
1
 10
59.266667
 20
71.882000
 30
0.0
 10
59.266667
 20
69.338865
 30
0.0
 10
59.157455
 20
68.019233
 30
0.0
 10
58.928000
 20
67.789778
 30
0.0
  0
SPLINE
  5
140
100
AcDbEntity
  8
0
 62
7
100
AcDbSpline
 70
8
 71
3
 72
8
 73
4
 74
0
 40
0
 40
0
 40
0
 40
0
 40
1
 40
1
 40
1
 40
1
 10
58.928000
 20
67.789778
 30
0.0
 10
58.459819
 20
67.321597
 30
0.0
 10
51.889070
 20
67.321597
 30
0.0
 10
51.420889
 20
67.789778
 30
0.0
  0
LWPOLYLINE
  5
141
100
AcDbEntity
  8
0
 62
7
100
AcDbPolyline
 90
3
 70
0
 10
63.020222
 20
75.635556
 30
0.0
 10
59.266667
 20
75.635556
 30
0.0
 10
59.266667
 20
71.882000
 30
0.0
  0
SPLINE
  5
142
100
AcDbEntity
  8
0
 62
7
100
AcDbSpline
 70
8
 71
3
 72
8
 73
4
 74
0
 40
0
 40
0
 40
0
 40
0
 40
1
 40
1
 40
1
 40
1
 10
67.789778
 20
67.789778
 30
0.0
 10
67.563690
 20
68.015866
 30
0.0
 10
67.451111
 20
69.263604
 30
0.0
 10
67.451111
 20
71.543333
 30
0.0
  0
SPLINE
  5
143
100
AcDbEntity
  8
0
 62
7
100
AcDbSpline
 70
8
 71
3
 72
8
 73
4
 74
0
 40
0
 40
0
 40
0
 40
0
 40
1
 40
1
 40
1
 40
1
 10
67.451111
 20
71.543333
 30
0.0
 10
67.451111
 20
73.823062
 30
0.0
 10
67.563690
 20
75.070800
 30
0.0
 10
67.789778
 20
75.296889
 30
0.0
  0
SPLINE
  5
144
100
AcDbEntity
  8
0
 62
7
100
AcDbSpline
 70
8
 71
3
 72
8
 73
4
 74
0
 40
0
 40
0
 40
0
 40
0
 40
1
 40
1
 40
1
 40
1
 10
67.789778
 20
75.296889
 30
0.0
 10
68.257959
 20
75.765071
 30
0.0
 10
74.828708
 20
75.765071
 30
0.0
 10
75.296889
 20
75.296889
 30
0.0
  0
SPLINE
  5
145
100
AcDbEntity
  8
0
 62
7
100
AcDbSpline
 70
8
 71
3
 72
8
 73
4
 74
0
 40
0
 40
0
 40
0
 40
0
 40
1
 40
1
 40
1
 40
1
 10
75.296889
 20
75.296889
 30
0.0
 10
75.522977
 20
75.070800
 30
0.0
 10
75.635556
 20
73.823062
 30
0.0
 10
75.635556
 20
71.543333
 30
0.0
  0
SPLINE
  5
146
100
AcDbEntity
  8
0
 62
7
100
AcDbSpline
 70
8
 71
3
 72
8
 73
4
 74
0
 40
0
 40
0
 40
0
 40
0
 40
1
 40
1
 40
1
 40
1
 10
75.635556
 20
71.543333
 30
0.0
 10
75.635556
 20
69.263604
 30
0.0
 10
75.522977
 20
68.015866
 30
0.0
 10
75.296889
 20
67.789778
 30
0.0
  0
SPLINE
  5
147
100
AcDbEntity
  8
0
 62
7
100
AcDbSpline
 70
8
 71
3
 72
8
 73
4
 74
0
 40
0
 40
0
 40
0
 40
0
 40
1
 40
1
 40
1
 40
1
 10
75.296889
 20
67.789778
 30
0.0
 10
74.828708
 20
67.321597
 30
0.0
 10
68.257959
 20
67.321597
 30
0.0
 10
67.789778
 20
67.789778
 30
0.0
  0
LWPOLYLINE
  5
148
100
AcDbEntity
  8
0
 62
7
100
AcDbPolyline
 90
2
 70
0
 10
51.420889
 20
67.789778
 30
0.0
 10
51.420889
 20
67.789778
 30
0.0
  0
SPLINE
  5
149
100
AcDbEntity
  8
0
 62
7
100
AcDbSpline
 70
8
 71
3
 72
8
 73
4
 74
0
 40
0
 40
0
 40
0
 40
0
 40
1
 40
1
 40
1
 40
1
 10
75.974222
 20
75.974222
 30
0.0
 10
75.727058
 20
76.221387
 30
0.0
 10
75.635556
 20
78.432691
 30
0.0
 10
75.635556
 20
84.158667
 30
0.0
  0
LWPOLYLINE
  5
14a
100
AcDbEntity
  8
0
 62
7
100
AcDbPolyline
 90
2
 70
0
 10
67.789778
 20
67.789778
 30
0.0
 10
67.789778
 20
67.789778
 30
0.0
  0
SPLINE
  5
14b
100
AcDbEntity
  8
0
 62
7
100
AcDbSpline
 70
8
 71
3
 72
8
 73
4
 74
0
 40
0
 40
0
 40
0
 40
0
 40
1
 40
1
 40
1
 40
1
 10
84.158667
 20
75.635556
 30
0.0
 10
78.432691
 20
75.635556
 30
0.0
 10
76.221387
 20
75.727058
 30
0.0
 10
75.974222
 20
75.974222
 30
0.0
  0
LWPOLYLINE
  5
14c
100
AcDbEntity
  8
0
 62
7
100
AcDbPolyline
 90
11
 70
0
 10
75.635556
 20
84.158667
 30
0.0
 10
75.635556
 20
92.004444
 30
0.0
 10
79.727778
 20
92.004444
 30
0.0
 10
83.820000
 20
92.004444
 30
0.0
 10
83.820000
 20
87.912222
 30
0.0
 10
83.820000
 20
83.820000
 30
0.0
 10
87.912222
 20
83.820000
 30
0.0
 10
92.004444
 20
83.820000
 30
0.0
 10
92.004444
 20
79.727778
 30
0.0
 10
92.004444
 20
75.635556
 30
0.0
 10
84.158667
 20
75.635556
 30
0.0
  0
LWPOLYLINE
  5
14d
100
AcDbEntity
  8
0
 62
7
100
AcDbPolyline
 90
2
 70
0
 10
75.974222
 20
75.974222
 30
0.0
 10
75.974222
 20
75.974222
 30
0.0
  0
LWPOLYLINE
  5
14e
100
AcDbEntity
  8
0
 62
7
100
AcDbPolyline
 90
10
 70
0
 10
26.528889
 20
87.912222
 30
0.0
 10
26.528889
 20
92.004444
 30
0.0
 10
30.621111
 20
92.004444
 30
0.0
 10
34.713333
 20
92.004444
 30
0.0
 10
34.713333
 20
87.912222
 30
0.0
 10
34.713333
 20
83.820000
 30
0.0
 10
30.621111
 20
83.820000
 30
0.0
 10
26.528889
 20
83.820000
 30
0.0
 10
26.528889
 20
87.912222
 30
0.0
 10
26.528889
 20
87.912222
 30
0.0
  0
SPLINE
  5
14f
100
AcDbEntity
  8
0
 62
7
100
AcDbSpline
 70
8
 71
3
 72
8
 73
4
 74
0
 40
0
 40
0
 40
0
 40
0
 40
1
 40
1
 40
1
 40
1
 10
51.082222
 20
88.250889
 30
0.0
 10
51.082222
 20
85.707753
 30
0.0
 10
50.973011
 20
84.388123
 30
0.0
 10
50.743556
 20
84.158667
 30
0.0
  0
SPLINE
  5
150
100
AcDbEntity
  8
0
 62
7
100
AcDbSpline
 70
8
 71
3
 72
8
 73
4
 74
0
 40
0
 40
0
 40
0
 40
0
 40
1
 40
1
 40
1
 40
1
 10
50.743556
 20
84.158667
 30
0.0
 10
50.514100
 20
83.929211
 30
0.0
 10
49.194469
 20
83.820000
 30
0.0
 10
46.651333
 20
83.820000
 30
0.0
  0
LWPOLYLINE
  5
151
100
AcDbEntity
  8
0
 62
7
100
AcDbPolyline
 90
5
 70
0
 10
42.897778
 20
87.912222
 30
0.0
 10
42.897778
 20
92.004444
 30
0.0
 10
46.990000
 20
92.004444
 30
0.0
 10
51.082222
 20
92.004444
 30
0.0
 10
51.082222
 20
88.250889
 30
0.0
  0
LWPOLYLINE
  5
152
100
AcDbEntity
  8
0
 62
7
100
AcDbPolyline
 90
4
 70
0
 10
46.651333
 20
83.820000
 30
0.0
 10
42.897778
 20
83.820000
 30
0.0
 10
42.897778
 20
87.912222
 30
0.0
 10
42.897778
 20
87.912222
 30
0.0
  0
ENDSEC
  0
SECTION
  2
OBJECTS
  0
DICTIONARY
  5
C
330
0
100
AcDbDictionary
  3
ACAD_GROUP
350
D
  3
ACAD_MLINESTYLE
350
17
  0
DICTIONARY
  5
D
330
C
100
AcDbDictionary
  0
DICTIONARY
  5
1A
330
C
100
AcDbDictionary
  0
DICTIONARY
  5
17
330
C
100
AcDbDictionary
  3
STANDARD
350
18
  0
DICTIONARY
  5
19
330
C
100
AcDbDictionary
  0
ENDSEC
  0
EOF
