  0
SECTION
  2
HEADER
  9
$ACADVER
  1
AC1014
  9
$HANDSEED
  5
FFFF
  9
$MEASUREMENT
 70
     1
  0
ENDSEC
  0
SECTION
  2
TABLES
  0
TABLE
  2
VPORT
  5
8
330
0
100
AcDbSymbolTable
 70
     4
  0
VPORT
  5
2E
330
8
100
AcDbSymbolTableRecord
100
AcDbViewportTableRecord
  2
*ACTIVE
 70
     0
 10
0.0
 20
0.0
 11
1.0
 21
1.0
 12
210.0
 22
148.5
 13
0.0
 23
0.0
 14
10.0
 24
10.0
 15
10.0
 25
10.0
 16
0.0
 26
0.0
 36
1.0
 17
0.0
 27
0.0
 37
0.0
 40
341.0
 41
1.24
 42
50.0
 43
0.0
 44
0.0
 50
0.0
 51
0.0
 71
     0
 72
   100
 73
     1
 74
     3
 75
     0
 76
     0
 77
     0
 78
     0
  0
ENDTAB
  0
TABLE
  2
LTYPE
  5
5
330
0
100
AcDbSymbolTable
 70
     1
  0
LTYPE
  5
14
330
5
100
AcDbSymbolTableRecord
100
AcDbLinetypeTableRecord
  2
BYBLOCK
 70
     0
  3

 72
    65
 73
     0
 40
0.0
  0
LTYPE
  5
15
330
5
100
AcDbSymbolTableRecord
100
AcDbLinetypeTableRecord
  2
BYLAYER
 70
     0
  3

 72
    65
 73
     0
 40
0.0
  0
LTYPE
  5
16
330
5
100
AcDbSymbolTableRecord
100
AcDbLinetypeTableRecord
  2
CONTINUOUS
 70
     0
  3
Solid line
 72
    65
 73
     0
 40
0.0
  0
ENDTAB
  0
TABLE
  2
LAYER
  5
2
100
AcDbSymbolTable
 70
1
  0
LAYER
  5
50
100
AcDbSymbolTableRecord
100
AcDbLayerTableRecord
  2
0
 70
0
  6
CONTINUOUS
  0
ENDTAB
  0
TABLE
  2
STYLE
  5
3
330
0
100
AcDbSymbolTable
 70
     1
  0
STYLE
  5
11
330
3
100
AcDbSymbolTableRecord
100
AcDbTextStyleTableRecord
  2
STANDARD
 70
     0
 40
0.0
 41
1.0
 50
0.0
 71
     0
 42
2.5
  3
txt
  4

  0
ENDTAB
  0
TABLE
  2
VIEW
  5
6
330
0
100
AcDbSymbolTable
 70
     0
  0
ENDTAB
  0
TABLE
  2
UCS
  5
7
330
0
100
AcDbSymbolTable
 70
     0
  0
ENDTAB
  0
TABLE
  2
APPID
  5
9
330
0
100
AcDbSymbolTable
 70
     2
  0
APPID
  5
12
330
9
100
AcDbSymbolTableRecord
100
AcDbRegAppTableRecord
  2
ACAD
 70
     0
  0
ENDTAB
  0
TABLE
  2
DIMSTYLE
  5
A
330
0
100
AcDbSymbolTable
 70
     1
  0
DIMSTYLE
105
27
330
A
100
AcDbSymbolTableRecord
100
AcDbDimStyleTableRecord
  2
ISO-25
 70
     0
  3

  4

  5

  6

  7

 40
1.0
 41
2.5
 42
0.625
 43
3.75
 44
1.25
 45
0.0
 46
0.0
 47
0.0
 48
0.0
140
2.5
141
2.5
142
0.0
143
0.03937007874016
144
1.0
145
0.0
146
1.0
147
0.625
 71
     0
 72
     0
 73
     0
 74
     0
 75
     0
 76
     0
 77
     1
 78
     8
170
     0
171
     3
172
     1
173
     0
174
     0
175
     0
176
     0
177
     0
178
     0
270
     2
271
     2
272
     2
273
     2
274
     3
340
11
275
     0
280
     0
281
     0
282
     0
283
     0
284
     8
285
     0
286
     0
287
     3
288
     0
  0
ENDTAB
  0
TABLE
  2
BLOCK_RECORD
  5
1
330
0
100
AcDbSymbolTable
 70
     1
  0
BLOCK_RECORD
  5
1F
330
1
100
AcDbSymbolTableRecord
100
AcDbBlockTableRecord
  2
*MODEL_SPACE
  0
BLOCK_RECORD
  5
1B
330
1
100
AcDbSymbolTableRecord
100
AcDbBlockTableRecord
  2
*PAPER_SPACE
  0
ENDTAB
  0
ENDSEC
  0
SECTION
  2
BLOCKS
  0
BLOCK
  5
20
330
1F
100
AcDbEntity
  8
0
100
AcDbBlockBegin
  2
*MODEL_SPACE
 70
     0
 10
0.0
 20
0.0
 30
0.0
  3
*MODEL_SPACE
  1

  0
ENDBLK
  5
21
330
1F
100
AcDbEntity
  8
0
100
AcDbBlockEnd
  0
BLOCK
  5
1C
330
1B
100
AcDbEntity
 67
     1
  8
0
100
AcDbBlockBegin
  2
*PAPER_SPACE
  1

  0
ENDBLK
  5
1D
330
1B
100
AcDbEntity
 67
     1
  8
0
100
AcDbBlockEnd
  0
ENDSEC
  0
SECTION
  2
ENTITIES
  0
LINE
  5
100
100
AcDbEntity
  8
0
 62
7
100
AcDbLine
 10
0.000000
 20
63.852777
 30
0.0
 11
0.000000
 21
127.705555
 31
0.0
  0
LINE
  5
101
100
AcDbEntity
  8
0
 62
7
100
AcDbLine
 10
0.000000
 20
127.705555
 30
0.0
 11
63.852777
 21
127.705555
 31
0.0
  0
LINE
  5
102
100
AcDbEntity
  8
0
 62
7
100
AcDbLine
 10
63.852777
 20
127.705555
 30
0.0
 11
127.705555
 21
127.705555
 31
0.0
  0
LINE
  5
103
100
AcDbEntity
  8
0
 62
7
100
AcDbLine
 10
127.705555
 20
127.705555
 30
0.0
 11
127.705555
 21
63.852777
 31
0.0
  0
LINE
  5
104
100
AcDbEntity
  8
0
 62
7
100
AcDbLine
 10
127.705555
 20
63.852777
 30
0.0
 11
127.705555
 21
-0.000000
 31
0.0
  0
LINE
  5
105
100
AcDbEntity
  8
0
 62
7
100
AcDbLine
 10
127.705555
 20
-0.000000
 30
0.0
 11
63.852777
 21
-0.000000
 31
0.0
  0
LINE
  5
106
100
AcDbEntity
  8
0
 62
7
100
AcDbLine
 10
63.852777
 20
-0.000000
 30
0.0
 11
0.000000
 21
-0.000000
 31
0.0
  0
LINE
  5
107
100
AcDbEntity
  8
0
 62
7
100
AcDbLine
 10
0.000000
 20
-0.000000
 30
0.0
 11
0.000000
 21
63.852777
 31
0.0
  0
LINE
  5
108
100
AcDbEntity
  8
0
 62
7
100
AcDbLine
 10
0.000000
 20
63.852777
 30
0.0
 11
0.000000
 21
63.852777
 31
0.0
  0
LINE
  5
109
100
AcDbEntity
  8
0
 62
7
100
AcDbLine
 10
127.352777
 20
63.852777
 30
0.0
 11
127.352777
 21
127.352777
 31
0.0
  0
LINE
  5
10a
100
AcDbEntity
  8
0
 62
7
100
AcDbLine
 10
127.352777
 20
127.352777
 30
0.0
 11
63.852777
 21
127.352777
 31
0.0
  0
LINE
  5
10b
100
AcDbEntity
  8
0
 62
7
100
AcDbLine
 10
63.852777
 20
127.352777
 30
0.0
 11
0.352777
 21
127.352777
 31
0.0
  0
LINE
  5
10c
100
AcDbEntity
  8
0
 62
7
100
AcDbLine
 10
0.352777
 20
127.352777
 30
0.0
 11
0.352777
 21
63.852777
 31
0.0
  0
LINE
  5
10d
100
AcDbEntity
  8
0
 62
7
100
AcDbLine
 10
0.352777
 20
63.852777
 30
0.0
 11
0.352777
 21
0.352777
 31
0.0
  0
LINE
  5
10e
100
AcDbEntity
  8
0
 62
7
100
AcDbLine
 10
0.352777
 20
0.352777
 30
0.0
 11
63.852777
 21
0.352777
 31
0.0
  0
LINE
  5
10f
100
AcDbEntity
  8
0
 62
7
100
AcDbLine
 10
63.852777
 20
0.352777
 30
0.0
 11
127.352777
 21
0.352777
 31
0.0
  0
LINE
  5
110
100
AcDbEntity
  8
0
 62
7
100
AcDbLine
 10
127.352777
 20
0.352777
 30
0.0
 11
127.352777
 21
63.852777
 31
0.0
  0
LINE
  5
111
100
AcDbEntity
  8
0
 62
7
100
AcDbLine
 10
127.352777
 20
63.852777
 30
0.0
 11
127.352777
 21
63.852777
 31
0.0
  0
LINE
  5
112
100
AcDbEntity
  8
0
 62
7
100
AcDbLine
 10
12.700000
 20
63.852777
 30
0.0
 11
12.700000
 21
115.005555
 31
0.0
  0
LINE
  5
113
100
AcDbEntity
  8
0
 62
7
100
AcDbLine
 10
12.700000
 20
115.005555
 30
0.0
 11
17.815277
 21
115.005555
 31
0.0
  0
LINE
  5
114
100
AcDbEntity
  8
0
 62
7
100
AcDbLine
 10
17.815277
 20
115.005555
 30
0.0
 11
22.930555
 21
115.005555
 31
0.0
  0
LINE
  5
115
100
AcDbEntity
  8
0
 62
7
100
AcDbLine
 10
22.930555
 20
115.005555
 30
0.0
 11
22.930555
 21
68.968055
 31
0.0
  0
LINE
  5
116
100
AcDbEntity
  8
0
 62
7
100
AcDbLine
 10
22.930555
 20
68.968055
 30
0.0
 11
22.930555
 21
22.930555
 31
0.0
  0
LINE
  5
117
100
AcDbEntity
  8
0
 62
7
100
AcDbLine
 10
22.930555
 20
22.930555
 30
0.0
 11
28.045834
 21
22.930555
 31
0.0
  0
LINE
  5
118
100
AcDbEntity
  8
0
 62
7
100
AcDbLine
 10
28.045834
 20
22.930555
 30
0.0
 11
33.161111
 21
22.930555
 31
0.0
  0
LINE
  5
119
100
AcDbEntity
  8
0
 62
7
100
AcDbLine
 10
33.161111
 20
22.930555
 30
0.0
 11
33.161111
 21
28.045834
 31
0.0
  0
LINE
  5
11a
100
AcDbEntity
  8
0
 62
7
100
AcDbLine
 10
33.161111
 20
28.045834
 30
0.0
 11
33.161111
 21
33.161111
 31
0.0
  0
LINE
  5
11b
100
AcDbEntity
  8
0
 62
7
100
AcDbLine
 10
33.161111
 20
33.161111
 30
0.0
 11
37.853055
 21
33.161111
 31
0.0
  0
SPLINE
  5
11c
100
AcDbEntity
  8
0
 62
7
100
AcDbSpline
 70
8
 71
3
 72
8
 73
4
 74
0
 40
0
 40
0
 40
0
 40
0
 40
1
 40
1
 40
1
 40
1
 10
37.853055
 20
33.161111
 30
0.0
 10
41.031975
 20
33.161111
 30
0.0
 10
42.681515
 20
33.024596
 30
0.0
 10
42.968334
 20
32.737777
 30
0.0
  0
SPLINE
  5
11d
100
AcDbEntity
  8
0
 62
7
100
AcDbSpline
 70
8
 71
3
 72
8
 73
4
 74
0
 40
0
 40
0
 40
0
 40
0
 40
1
 40
1
 40
1
 40
1
 10
42.968334
 20
32.737777
 30
0.0
 10
43.255152
 20
32.450959
 30
0.0
 10
43.391666
 20
30.801419
 30
0.0
 10
43.391666
 20
27.622500
 30
0.0
  0
LINE
  5
11e
100
AcDbEntity
  8
0
 62
7
100
AcDbLine
 10
43.391666
 20
27.622500
 30
0.0
 11
43.391666
 21
22.930555
 31
0.0
  0
LINE
  5
11f
100
AcDbEntity
  8
0
 62
7
100
AcDbLine
 10
43.391666
 20
22.930555
 30
0.0
 11
79.198611
 21
22.930555
 31
0.0
  0
LINE
  5
120
100
AcDbEntity
  8
0
 62
7
100
AcDbLine
 10
79.198611
 20
22.930555
 30
0.0
 11
115.005555
 21
22.930555
 31
0.0
  0
LINE
  5
121
100
AcDbEntity
  8
0
 62
7
100
AcDbLine
 10
115.005555
 20
22.930555
 30
0.0
 11
115.005555
 21
17.815277
 31
0.0
  0
LINE
  5
122
100
AcDbEntity
  8
0
 62
7
100
AcDbLine
 10
115.005555
 20
17.815277
 30
0.0
 11
115.005555
 21
12.700000
 31
0.0
  0
LINE
  5
123
100
AcDbEntity
  8
0
 62
7
100
AcDbLine
 10
115.005555
 20
12.700000
 30
0.0
 11
63.852777
 21
12.700000
 31
0.0
  0
LINE
  5
124
100
AcDbEntity
  8
0
 62
7
100
AcDbLine
 10
63.852777
 20
12.700000
 30
0.0
 11
12.700000
 21
12.700000
 31
0.0
  0
LINE
  5
125
100
AcDbEntity
  8
0
 62
7
100
AcDbLine
 10
12.700000
 20
12.700000
 30
0.0
 11
12.700000
 21
63.852777
 31
0.0
  0
LINE
  5
126
100
AcDbEntity
  8
0
 62
7
100
AcDbLine
 10
12.700000
 20
63.852777
 30
0.0
 11
12.700000
 21
63.852777
 31
0.0
  0
LINE
  5
127
100
AcDbEntity
  8
0
 62
7
100
AcDbLine
 10
94.544445
 20
28.398611
 30
0.0
 11
94.544445
 21
33.161111
 31
0.0
  0
LINE
  5
128
100
AcDbEntity
  8
0
 62
7
100
AcDbLine
 10
94.544445
 20
33.161111
 30
0.0
 11
89.429166
 21
33.161111
 31
0.0
  0
LINE
  5
129
100
AcDbEntity
  8
0
 62
7
100
AcDbLine
 10
89.429166
 20
33.161111
 30
0.0
 11
84.313889
 21
33.161111
 31
0.0
  0
LINE
  5
12a
100
AcDbEntity
  8
0
 62
7
100
AcDbLine
 10
84.313889
 20
33.161111
 30
0.0
 11
84.313889
 21
38.276389
 31
0.0
  0
LINE
  5
12b
100
AcDbEntity
  8
0
 62
7
100
AcDbLine
 10
84.313889
 20
38.276389
 30
0.0
 11
84.313889
 21
43.391666
 31
0.0
  0
LINE
  5
12c
100
AcDbEntity
  8
0
 62
7
100
AcDbLine
 10
84.313889
 20
43.391666
 30
0.0
 11
79.198611
 21
43.391666
 31
0.0
  0
LINE
  5
12d
100
AcDbEntity
  8
0
 62
7
100
AcDbLine
 10
79.198611
 20
43.391666
 30
0.0
 11
74.083334
 21
43.391666
 31
0.0
  0
LINE
  5
12e
100
AcDbEntity
  8
0
 62
7
100
AcDbLine
 10
74.083334
 20
43.391666
 30
0.0
 11
74.083334
 21
38.276389
 31
0.0
  0
LINE
  5
12f
100
AcDbEntity
  8
0
 62
7
100
AcDbLine
 10
74.083334
 20
38.276389
 30
0.0
 11
74.083334
 21
33.161111
 31
0.0
  0
LINE
  5
130
100
AcDbEntity
  8
0
 62
7
100
AcDbLine
 10
74.083334
 20
33.161111
 30
0.0
 11
68.968055
 21
33.161111
 31
0.0
  0
LINE
  5
131
100
AcDbEntity
  8
0
 62
7
100
AcDbLine
 10
68.968055
 20
33.161111
 30
0.0
 11
63.852777
 21
33.161111
 31
0.0
  0
LINE
  5
132
100
AcDbEntity
  8
0
 62
7
100
AcDbLine
 10
63.852777
 20
33.161111
 30
0.0
 11
63.852777
 21
38.276389
 31
0.0
  0
LINE
  5
133
100
AcDbEntity
  8
0
 62
7
100
AcDbLine
 10
63.852777
 20
38.276389
 30
0.0
 11
63.852777
 21
43.391666
 31
0.0
  0
LINE
  5
134
100
AcDbEntity
  8
0
 62
7
100
AcDbLine
 10
63.852777
 20
43.391666
 30
0.0
 11
59.160834
 21
43.391666
 31
0.0
  0
SPLINE
  5
135
100
AcDbEntity
  8
0
 62
7
100
AcDbSpline
 70
8
 71
3
 72
8
 73
4
 74
0
 40
0
 40
0
 40
0
 40
0
 40
1
 40
1
 40
1
 40
1
 10
59.160834
 20
43.391666
 30
0.0
 10
55.981914
 20
43.391666
 30
0.0
 10
54.332375
 20
43.528181
 30
0.0
 10
54.045555
 20
43.815000
 30
0.0
  0
SPLINE
  5
136
100
AcDbEntity
  8
0
 62
7
100
AcDbSpline
 70
8
 71
3
 72
8
 73
4
 74
0
 40
0
 40
0
 40
0
 40
0
 40
1
 40
1
 40
1
 40
1
 10
54.045555
 20
43.815000
 30
0.0
 10
53.762945
 20
44.097610
 30
0.0
 10
53.622223
 20
45.657284
 30
0.0
 10
53.622223
 20
48.506945
 30
0.0
  0
SPLINE
  5
137
100
AcDbEntity
  8
0
 62
7
100
AcDbSpline
 70
8
 71
3
 72
8
 73
4
 74
0
 40
0
 40
0
 40
0
 40
0
 40
1
 40
1
 40
1
 40
1
 10
53.622223
 20
48.506945
 30
0.0
 10
53.622223
 20
51.356606
 30
0.0
 10
53.762945
 20
52.916279
 30
0.0
 10
54.045555
 20
53.198889
 30
0.0
  0
SPLINE
  5
138
100
AcDbEntity
  8
0
 62
7
100
AcDbSpline
 70
8
 71
3
 72
8
 73
4
 74
0
 40
0
 40
0
 40
0
 40
0
 40
1
 40
1
 40
1
 40
1
 10
54.045555
 20
53.198889
 30
0.0
 10
54.361471
 20
53.514805
 30
0.0
 10
58.255369
 20
53.622222
 30
0.0
 10
69.391389
 20
53.622222
 30
0.0
  0
LINE
  5
139
100
AcDbEntity
  8
0
 62
7
100
AcDbLine
 10
69.391389
 20
53.622222
 30
0.0
 11
84.313889
 21
53.622222
 31
0.0
  0
LINE
  5
13a
100
AcDbEntity
  8
0
 62
7
100
AcDbLine
 10
84.313889
 20
53.622222
 30
0.0
 11
84.313889
 21
58.314166
 31
0.0
  0
SPLINE
  5
13b
100
AcDbEntity
  8
0
 62
7
100
AcDbSpline
 70
8
 71
3
 72
8
 73
4
 74
0
 40
0
 40
0
 40
0
 40
0
 40
1
 40
1
 40
1
 40
1
 10
84.313889
 20
58.314166
 30
0.0
 10
84.313889
 20
61.493086
 30
0.0
 10
84.450404
 20
63.142625
 30
0.0
 10
84.737223
 20
63.429445
 30
0.0
  0
SPLINE
  5
13c
100
AcDbEntity
  8
0
 62
7
100
AcDbSpline
 70
8
 71
3
 72
8
 73
4
 74
0
 40
0
 40
0
 40
0
 40
0
 40
1
 40
1
 40
1
 40
1
 10
84.737223
 20
63.429445
 30
0.0
 10
85.024041
 20
63.716264
 30
0.0
 10
86.673581
 20
63.852777
 30
0.0
 10
89.852500
 20
63.852777
 30
0.0
  0
LINE
  5
13d
100
AcDbEntity
  8
0
 62
7
100
AcDbLine
 10
89.852500
 20
63.852777
 30
0.0
 11
94.544445
 21
63.852777
 31
0.0
  0
LINE
  5
13e
100
AcDbEntity
  8
0
 62
7
100
AcDbLine
 10
94.544445
 20
63.852777
 30
0.0
 11
94.544445
 21
53.622222
 31
0.0
  0
LINE
  5
13f
100
AcDbEntity
  8
0
 62
7
100
AcDbLine
 10
94.544445
 20
53.622222
 30
0.0
 11
94.544445
 21
43.391666
 31
0.0
  0
LINE
  5
140
100
AcDbEntity
  8
0
 62
7
100
AcDbLine
 10
94.544445
 20
43.391666
 30
0.0
 11
104.775000
 21
43.391666
 31
0.0
  0
LINE
  5
141
100
AcDbEntity
  8
0
 62
7
100
AcDbLine
 10
104.775000
 20
43.391666
 30
0.0
 11
115.005555
 21
43.391666
 31
0.0
  0
LINE
  5
142
100
AcDbEntity
  8
0
 62
7
100
AcDbLine
 10
115.005555
 20
43.391666
 30
0.0
 11
115.005555
 21
38.276389
 31
0.0
  0
LINE
  5
143
100
AcDbEntity
  8
0
 62
7
100
AcDbLine
 10
115.005555
 20
38.276389
 30
0.0
 11
115.005555
 21
33.161111
 31
0.0
  0
LINE
  5
144
100
AcDbEntity
  8
0
 62
7
100
AcDbLine
 10
115.005555
 20
33.161111
 30
0.0
 11
109.890277
 21
33.161111
 31
0.0
  0
LINE
  5
145
100
AcDbEntity
  8
0
 62
7
100
AcDbLine
 10
109.890277
 20
33.161111
 30
0.0
 11
104.775000
 21
33.161111
 31
0.0
  0
LINE
  5
146
100
AcDbEntity
  8
0
 62
7
100
AcDbLine
 10
104.775000
 20
33.161111
 30
0.0
 11
104.775000
 21
28.398611
 31
0.0
  0
LINE
  5
147
100
AcDbEntity
  8
0
 62
7
100
AcDbLine
 10
104.775000
 20
28.398611
 30
0.0
 11
104.775000
 21
23.636111
 31
0.0
  0
LINE
  5
148
100
AcDbEntity
  8
0
 62
7
100
AcDbLine
 10
104.775000
 20
23.636111
 30
0.0
 11
99.659723
 21
23.636111
 31
0.0
  0
LINE
  5
149
100
AcDbEntity
  8
0
 62
7
100
AcDbLine
 10
99.659723
 20
23.636111
 30
0.0
 11
94.544445
 21
23.636111
 31
0.0
  0
LINE
  5
14a
100
AcDbEntity
  8
0
 62
7
100
AcDbLine
 10
94.544445
 20
23.636111
 30
0.0
 11
94.544445
 21
28.398611
 31
0.0
  0
LINE
  5
14b
100
AcDbEntity
  8
0
 62
7
100
AcDbLine
 10
94.544445
 20
28.398611
 30
0.0
 11
94.544445
 21
28.398611
 31
0.0
  0
SPLINE
  5
14c
100
AcDbEntity
  8
0
 62
7
100
AcDbSpline
 70
8
 71
3
 72
8
 73
4
 74
0
 40
0
 40
0
 40
0
 40
0
 40
1
 40
1
 40
1
 40
1
 10
43.815000
 20
33.584445
 30
0.0
 10
43.229774
 20
34.169671
 30
0.0
 10
43.229774
 20
42.383106
 30
0.0
 10
43.815000
 20
42.968334
 30
0.0
  0
SPLINE
  5
14d
100
AcDbEntity
  8
0
 62
7
100
AcDbSpline
 70
8
 71
3
 72
8
 73
4
 74
0
 40
0
 40
0
 40
0
 40
0
 40
1
 40
1
 40
1
 40
1
 10
43.815000
 20
42.968334
 30
0.0
 10
44.097610
 20
43.250944
 30
0.0
 10
45.657284
 20
43.391666
 30
0.0
 10
48.506945
 20
43.391666
 30
0.0
  0
SPLINE
  5
14e
100
AcDbEntity
  8
0
 62
7
100
AcDbSpline
 70
8
 71
3
 72
8
 73
4
 74
0
 40
0
 40
0
 40
0
 40
0
 40
1
 40
1
 40
1
 40
1
 10
48.506945
 20
43.391666
 30
0.0
 10
51.356606
 20
43.391666
 30
0.0
 10
52.916279
 20
43.250944
 30
0.0
 10
53.198889
 20
42.968334
 30
0.0
  0
SPLINE
  5
14f
100
AcDbEntity
  8
0
 62
7
100
AcDbSpline
 70
8
 71
3
 72
8
 73
4
 74
0
 40
0
 40
0
 40
0
 40
0
 40
1
 40
1
 40
1
 40
1
 10
53.198889
 20
42.968334
 30
0.0
 10
53.485707
 20
42.681515
 30
0.0
 10
53.622223
 20
41.031975
 30
0.0
 10
53.622223
 20
37.853055
 30
0.0
  0
LINE
  5
150
100
AcDbEntity
  8
0
 62
7
100
AcDbLine
 10
53.622223
 20
37.853055
 30
0.0
 11
53.622223
 21
33.161111
 31
0.0
  0
LINE
  5
151
100
AcDbEntity
  8
0
 62
7
100
AcDbLine
 10
53.622223
 20
33.161111
 30
0.0
 11
48.930277
 21
33.161111
 31
0.0
  0
SPLINE
  5
152
100
AcDbEntity
  8
0
 62
7
100
AcDbSpline
 70
8
 71
3
 72
8
 73
4
 74
0
 40
0
 40
0
 40
0
 40
0
 40
1
 40
1
 40
1
 40
1
 10
48.930277
 20
33.161111
 30
0.0
 10
45.751359
 20
33.161111
 30
0.0
 10
44.101819
 20
33.297625
 30
0.0
 10
43.815000
 20
33.584445
 30
0.0
  0
LINE
  5
153
100
AcDbEntity
  8
0
 62
7
100
AcDbLine
 10
43.815000
 20
33.584445
 30
0.0
 11
43.815000
 21
33.584445
 31
0.0
  0
LINE
  5
154
100
AcDbEntity
  8
0
 62
7
100
AcDbLine
 10
33.161111
 20
63.852777
 30
0.0
 11
33.161111
 21
84.313889
 31
0.0
  0
LINE
  5
155
100
AcDbEntity
  8
0
 62
7
100
AcDbLine
 10
33.161111
 20
84.313889
 30
0.0
 11
28.398611
 21
84.313889
 31
0.0
  0
LINE
  5
156
100
AcDbEntity
  8
0
 62
7
100
AcDbLine
 10
28.398611
 20
84.313889
 30
0.0
 11
23.636111
 21
84.313889
 31
0.0
  0
LINE
  5
157
100
AcDbEntity
  8
0
 62
7
100
AcDbLine
 10
23.636111
 20
84.313889
 30
0.0
 11
23.636111
 21
89.429166
 31
0.0
  0
LINE
  5
158
100
AcDbEntity
  8
0
 62
7
100
AcDbLine
 10
23.636111
 20
89.429166
 30
0.0
 11
23.636111
 21
94.544445
 31
0.0
  0
LINE
  5
159
100
AcDbEntity
  8
0
 62
7
100
AcDbLine
 10
23.636111
 20
94.544445
 30
0.0
 11
33.513889
 21
94.544445
 31
0.0
  0
LINE
  5
15a
100
AcDbEntity
  8
0
 62
7
100
AcDbLine
 10
33.513889
 20
94.544445
 30
0.0
 11
43.391666
 21
94.544445
 31
0.0
  0
LINE
  5
15b
100
AcDbEntity
  8
0
 62
7
100
AcDbLine
 10
43.391666
 20
94.544445
 30
0.0
 11
43.391666
 21
84.313889
 31
0.0
  0
LINE
  5
15c
100
AcDbEntity
  8
0
 62
7
100
AcDbLine
 10
43.391666
 20
84.313889
 30
0.0
 11
43.391666
 21
74.083334
 31
0.0
  0
LINE
  5
15d
100
AcDbEntity
  8
0
 62
7
100
AcDbLine
 10
43.391666
 20
74.083334
 30
0.0
 11
48.506945
 21
74.083334
 31
0.0
  0
LINE
  5
15e
100
AcDbEntity
  8
0
 62
7
100
AcDbLine
 10
48.506945
 20
74.083334
 30
0.0
 11
53.622223
 21
74.083334
 31
0.0
  0
LINE
  5
15f
100
AcDbEntity
  8
0
 62
7
100
AcDbLine
 10
53.622223
 20
74.083334
 30
0.0
 11
53.622223
 21
64.276111
 31
0.0
  0
SPLINE
  5
160
100
AcDbEntity
  8
0
 62
7
100
AcDbSpline
 70
8
 71
3
 72
8
 73
4
 74
0
 40
0
 40
0
 40
0
 40
0
 40
1
 40
1
 40
1
 40
1
 10
53.622223
 20
64.276111
 30
0.0
 10
53.622223
 20
57.118641
 30
0.0
 10
53.507845
 20
54.354511
 30
0.0
 10
53.198889
 20
54.045555
 30
0.0
  0
SPLINE
  5
161
100
AcDbEntity
  8
0
 62
7
100
AcDbSpline
 70
8
 71
3
 72
8
 73
4
 74
0
 40
0
 40
0
 40
0
 40
0
 40
1
 40
1
 40
1
 40
1
 10
53.198889
 20
54.045555
 30
0.0
 10
52.912070
 20
53.758736
 30
0.0
 10
51.262530
 20
53.622222
 30
0.0
 10
48.083611
 20
53.622222
 30
0.0
  0
LINE
  5
162
100
AcDbEntity
  8
0
 62
7
100
AcDbLine
 10
48.083611
 20
53.622222
 30
0.0
 11
43.391666
 21
53.622222
 31
0.0
  0
LINE
  5
163
100
AcDbEntity
  8
0
 62
7
100
AcDbLine
 10
43.391666
 20
53.622222
 30
0.0
 11
43.391666
 21
48.930277
 31
0.0
  0
SPLINE
  5
164
100
AcDbEntity
  8
0
 62
7
100
AcDbSpline
 70
8
 71
3
 72
8
 73
4
 74
0
 40
0
 40
0
 40
0
 40
0
 40
1
 40
1
 40
1
 40
1
 10
43.391666
 20
48.930277
 30
0.0
 10
43.391666
 20
45.751359
 30
0.0
 10
43.255152
 20
44.101819
 30
0.0
 10
42.968334
 20
43.815000
 30
0.0
  0
SPLINE
  5
165
100
AcDbEntity
  8
0
 62
7
100
AcDbSpline
 70
8
 71
3
 72
8
 73
4
 74
0
 40
0
 40
0
 40
0
 40
0
 40
1
 40
1
 40
1
 40
1
 10
42.968334
 20
43.815000
 30
0.0
 10
42.681515
 20
43.528181
 30
0.0
 10
41.031975
 20
43.391666
 30
0.0
 10
37.853055
 20
43.391666
 30
0.0
  0
LINE
  5
166
100
AcDbEntity
  8
0
 62
7
100
AcDbLine
 10
37.853055
 20
43.391666
 30
0.0
 11
33.161111
 21
43.391666
 31
0.0
  0
LINE
  5
167
100
AcDbEntity
  8
0
 62
7
100
AcDbLine
 10
33.161111
 20
43.391666
 30
0.0
 11
33.161111
 21
63.852777
 31
0.0
  0
LINE
  5
168
100
AcDbEntity
  8
0
 62
7
100
AcDbLine
 10
33.161111
 20
63.852777
 30
0.0
 11
33.161111
 21
63.852777
 31
0.0
  0
LINE
  5
169
100
AcDbEntity
  8
0
 62
7
100
AcDbLine
 10
104.775000
 20
58.737500
 30
0.0
 11
104.775000
 21
63.852777
 31
0.0
  0
LINE
  5
16a
100
AcDbEntity
  8
0
 62
7
100
AcDbLine
 10
104.775000
 20
63.852777
 30
0.0
 11
109.890277
 21
63.852777
 31
0.0
  0
LINE
  5
16b
100
AcDbEntity
  8
0
 62
7
100
AcDbLine
 10
109.890277
 20
63.852777
 30
0.0
 11
115.005555
 21
63.852777
 31
0.0
  0
LINE
  5
16c
100
AcDbEntity
  8
0
 62
7
100
AcDbLine
 10
115.005555
 20
63.852777
 30
0.0
 11
115.005555
 21
58.737500
 31
0.0
  0
LINE
  5
16d
100
AcDbEntity
  8
0
 62
7
100
AcDbLine
 10
115.005555
 20
58.737500
 30
0.0
 11
115.005555
 21
53.622222
 31
0.0
  0
LINE
  5
16e
100
AcDbEntity
  8
0
 62
7
100
AcDbLine
 10
115.005555
 20
53.622222
 30
0.0
 11
109.890277
 21
53.622222
 31
0.0
  0
LINE
  5
16f
100
AcDbEntity
  8
0
 62
7
100
AcDbLine
 10
109.890277
 20
53.622222
 30
0.0
 11
104.775000
 21
53.622222
 31
0.0
  0
LINE
  5
170
100
AcDbEntity
  8
0
 62
7
100
AcDbLine
 10
104.775000
 20
53.622222
 30
0.0
 11
104.775000
 21
58.737500
 31
0.0
  0
LINE
  5
171
100
AcDbEntity
  8
0
 62
7
100
AcDbLine
 10
104.775000
 20
58.737500
 30
0.0
 11
104.775000
 21
58.737500
 31
0.0
  0
LINE
  5
172
100
AcDbEntity
  8
0
 62
7
100
AcDbLine
 10
74.083334
 20
68.968055
 30
0.0
 11
74.083334
 21
74.083334
 31
0.0
  0
LINE
  5
173
100
AcDbEntity
  8
0
 62
7
100
AcDbLine
 10
74.083334
 20
74.083334
 30
0.0
 11
68.968055
 21
74.083334
 31
0.0
  0
LINE
  5
174
100
AcDbEntity
  8
0
 62
7
100
AcDbLine
 10
68.968055
 20
74.083334
 30
0.0
 11
63.852777
 21
74.083334
 31
0.0
  0
LINE
  5
175
100
AcDbEntity
  8
0
 62
7
100
AcDbLine
 10
63.852777
 20
74.083334
 30
0.0
 11
63.852777
 21
79.198611
 31
0.0
  0
LINE
  5
176
100
AcDbEntity
  8
0
 62
7
100
AcDbLine
 10
63.852777
 20
79.198611
 30
0.0
 11
63.852777
 21
84.313889
 31
0.0
  0
LINE
  5
177
100
AcDbEntity
  8
0
 62
7
100
AcDbLine
 10
63.852777
 20
84.313889
 30
0.0
 11
58.737500
 21
84.313889
 31
0.0
  0
LINE
  5
178
100
AcDbEntity
  8
0
 62
7
100
AcDbLine
 10
58.737500
 20
84.313889
 30
0.0
 11
53.622223
 21
84.313889
 31
0.0
  0
LINE
  5
179
100
AcDbEntity
  8
0
 62
7
100
AcDbLine
 10
53.622223
 20
84.313889
 30
0.0
 11
53.622223
 21
89.429166
 31
0.0
  0
LINE
  5
17a
100
AcDbEntity
  8
0
 62
7
100
AcDbLine
 10
53.622223
 20
89.429166
 30
0.0
 11
53.622223
 21
94.544445
 31
0.0
  0
LINE
  5
17b
100
AcDbEntity
  8
0
 62
7
100
AcDbLine
 10
53.622223
 20
94.544445
 30
0.0
 11
58.737500
 21
94.544445
 31
0.0
  0
LINE
  5
17c
100
AcDbEntity
  8
0
 62
7
100
AcDbLine
 10
58.737500
 20
94.544445
 30
0.0
 11
63.852777
 21
94.544445
 31
0.0
  0
LINE
  5
17d
100
AcDbEntity
  8
0
 62
7
100
AcDbLine
 10
63.852777
 20
94.544445
 30
0.0
 11
63.852777
 21
99.236389
 31
0.0
  0
SPLINE
  5
17e
100
AcDbEntity
  8
0
 62
7
100
AcDbSpline
 70
8
 71
3
 72
8
 73
4
 74
0
 40
0
 40
0
 40
0
 40
0
 40
1
 40
1
 40
1
 40
1
 10
63.852777
 20
99.236389
 30
0.0
 10
63.852777
 20
102.415309
 30
0.0
 10
63.989293
 20
104.064846
 30
0.0
 10
64.276111
 20
104.351666
 30
0.0
  0
SPLINE
  5
17f
100
AcDbEntity
  8
0
 62
7
100
AcDbSpline
 70
8
 71
3
 72
8
 73
4
 74
0
 40
0
 40
0
 40
0
 40
0
 40
1
 40
1
 40
1
 40
1
 10
64.276111
 20
104.351666
 30
0.0
 10
64.562930
 20
104.638486
 30
0.0
 10
66.212470
 20
104.775000
 30
0.0
 10
69.391389
 20
104.775000
 30
0.0
  0
LINE
  5
180
100
AcDbEntity
  8
0
 62
7
100
AcDbLine
 10
69.391389
 20
104.775000
 30
0.0
 11
74.083334
 21
104.775000
 31
0.0
  0
LINE
  5
181
100
AcDbEntity
  8
0
 62
7
100
AcDbLine
 10
74.083334
 20
104.775000
 30
0.0
 11
74.083334
 21
109.890277
 31
0.0
  0
LINE
  5
182
100
AcDbEntity
  8
0
 62
7
100
AcDbLine
 10
74.083334
 20
109.890277
 30
0.0
 11
74.083334
 21
115.005555
 31
0.0
  0
LINE
  5
183
100
AcDbEntity
  8
0
 62
7
100
AcDbLine
 10
74.083334
 20
115.005555
 30
0.0
 11
79.198611
 21
115.005555
 31
0.0
  0
LINE
  5
184
100
AcDbEntity
  8
0
 62
7
100
AcDbLine
 10
79.198611
 20
115.005555
 30
0.0
 11
84.313889
 21
115.005555
 31
0.0
  0
LINE
  5
185
100
AcDbEntity
  8
0
 62
7
100
AcDbLine
 10
84.313889
 20
115.005555
 30
0.0
 11
84.313889
 21
104.775000
 31
0.0
  0
LINE
  5
186
100
AcDbEntity
  8
0
 62
7
100
AcDbLine
 10
84.313889
 20
104.775000
 30
0.0
 11
84.313889
 21
94.544445
 31
0.0
  0
LINE
  5
187
100
AcDbEntity
  8
0
 62
7
100
AcDbLine
 10
84.313889
 20
94.544445
 30
0.0
 11
79.198611
 21
94.544445
 31
0.0
  0
LINE
  5
188
100
AcDbEntity
  8
0
 62
7
100
AcDbLine
 10
79.198611
 20
94.544445
 30
0.0
 11
74.083334
 21
94.544445
 31
0.0
  0
LINE
  5
189
100
AcDbEntity
  8
0
 62
7
100
AcDbLine
 10
74.083334
 20
94.544445
 30
0.0
 11
74.083334
 21
89.429166
 31
0.0
  0
LINE
  5
18a
100
AcDbEntity
  8
0
 62
7
100
AcDbLine
 10
74.083334
 20
89.429166
 30
0.0
 11
74.083334
 21
84.313889
 31
0.0
  0
LINE
  5
18b
100
AcDbEntity
  8
0
 62
7
100
AcDbLine
 10
74.083334
 20
84.313889
 30
0.0
 11
79.198611
 21
84.313889
 31
0.0
  0
LINE
  5
18c
100
AcDbEntity
  8
0
 62
7
100
AcDbLine
 10
79.198611
 20
84.313889
 30
0.0
 11
84.313889
 21
84.313889
 31
0.0
  0
LINE
  5
18d
100
AcDbEntity
  8
0
 62
7
100
AcDbLine
 10
84.313889
 20
84.313889
 30
0.0
 11
84.313889
 21
74.506666
 31
0.0
  0
SPLINE
  5
18e
100
AcDbEntity
  8
0
 62
7
100
AcDbSpline
 70
8
 71
3
 72
8
 73
4
 74
0
 40
0
 40
0
 40
0
 40
0
 40
1
 40
1
 40
1
 40
1
 10
84.313889
 20
74.506666
 30
0.0
 10
84.313889
 20
67.349197
 30
0.0
 10
84.199511
 20
64.585066
 30
0.0
 10
83.890555
 20
64.276111
 30
0.0
  0
SPLINE
  5
18f
100
AcDbEntity
  8
0
 62
7
100
AcDbSpline
 70
8
 71
3
 72
8
 73
4
 74
0
 40
0
 40
0
 40
0
 40
0
 40
1
 40
1
 40
1
 40
1
 10
83.890555
 20
64.276111
 30
0.0
 10
83.603736
 20
63.989293
 30
0.0
 10
81.954198
 20
63.852777
 30
0.0
 10
78.775277
 20
63.852777
 30
0.0
  0
LINE
  5
190
100
AcDbEntity
  8
0
 62
7
100
AcDbLine
 10
78.775277
 20
63.852777
 30
0.0
 11
74.083334
 21
63.852777
 31
0.0
  0
LINE
  5
191
100
AcDbEntity
  8
0
 62
7
100
AcDbLine
 10
74.083334
 20
63.852777
 30
0.0
 11
74.083334
 21
68.968055
 31
0.0
  0
LINE
  5
192
100
AcDbEntity
  8
0
 62
7
100
AcDbLine
 10
74.083334
 20
68.968055
 30
0.0
 11
74.083334
 21
68.968055
 31
0.0
  0
LINE
  5
193
100
AcDbEntity
  8
0
 62
7
100
AcDbLine
 10
94.544445
 20
84.313889
 30
0.0
 11
94.544445
 21
94.544445
 31
0.0
  0
LINE
  5
194
100
AcDbEntity
  8
0
 62
7
100
AcDbLine
 10
94.544445
 20
94.544445
 30
0.0
 11
99.236389
 21
94.544445
 31
0.0
  0
SPLINE
  5
195
100
AcDbEntity
  8
0
 62
7
100
AcDbSpline
 70
8
 71
3
 72
8
 73
4
 74
0
 40
0
 40
0
 40
0
 40
0
 40
1
 40
1
 40
1
 40
1
 10
99.236389
 20
94.544445
 30
0.0
 10
102.415309
 20
94.544445
 30
0.0
 10
104.064848
 20
94.407931
 30
0.0
 10
104.351666
 20
94.121111
 30
0.0
  0
SPLINE
  5
196
100
AcDbEntity
  8
0
 62
7
100
AcDbSpline
 70
8
 71
3
 72
8
 73
4
 74
0
 40
0
 40
0
 40
0
 40
0
 40
1
 40
1
 40
1
 40
1
 10
104.351666
 20
94.121111
 30
0.0
 10
104.638485
 20
93.834291
 30
0.0
 10
104.775000
 20
92.184752
 30
0.0
 10
104.775000
 20
89.005834
 30
0.0
  0
LINE
  5
197
100
AcDbEntity
  8
0
 62
7
100
AcDbLine
 10
104.775000
 20
89.005834
 30
0.0
 11
104.775000
 21
84.313889
 31
0.0
  0
LINE
  5
198
100
AcDbEntity
  8
0
 62
7
100
AcDbLine
 10
104.775000
 20
84.313889
 30
0.0
 11
109.890277
 21
84.313889
 31
0.0
  0
LINE
  5
199
100
AcDbEntity
  8
0
 62
7
100
AcDbLine
 10
109.890277
 20
84.313889
 30
0.0
 11
115.005555
 21
84.313889
 31
0.0
  0
LINE
  5
19a
100
AcDbEntity
  8
0
 62
7
100
AcDbLine
 10
115.005555
 20
84.313889
 30
0.0
 11
115.005555
 21
79.198611
 31
0.0
  0
LINE
  5
19b
100
AcDbEntity
  8
0
 62
7
100
AcDbLine
 10
115.005555
 20
79.198611
 30
0.0
 11
115.005555
 21
74.083334
 31
0.0
  0
LINE
  5
19c
100
AcDbEntity
  8
0
 62
7
100
AcDbLine
 10
115.005555
 20
74.083334
 30
0.0
 11
104.775000
 21
74.083334
 31
0.0
  0
LINE
  5
19d
100
AcDbEntity
  8
0
 62
7
100
AcDbLine
 10
104.775000
 20
74.083334
 30
0.0
 11
94.544445
 21
74.083334
 31
0.0
  0
LINE
  5
19e
100
AcDbEntity
  8
0
 62
7
100
AcDbLine
 10
94.544445
 20
74.083334
 30
0.0
 11
94.544445
 21
84.313889
 31
0.0
  0
LINE
  5
19f
100
AcDbEntity
  8
0
 62
7
100
AcDbLine
 10
94.544445
 20
84.313889
 30
0.0
 11
94.544445
 21
84.313889
 31
0.0
  0
SPLINE
  5
1a0
100
AcDbEntity
  8
0
 62
7
100
AcDbSpline
 70
8
 71
3
 72
8
 73
4
 74
0
 40
0
 40
0
 40
0
 40
0
 40
1
 40
1
 40
1
 40
1
 10
105.198334
 20
94.967777
 30
0.0
 10
104.915722
 20
95.250389
 30
0.0
 10
104.775000
 20
96.810061
 30
0.0
 10
104.775000
 20
99.659722
 30
0.0
  0
SPLINE
  5
1a1
100
AcDbEntity
  8
0
 62
7
100
AcDbSpline
 70
8
 71
3
 72
8
 73
4
 74
0
 40
0
 40
0
 40
0
 40
0
 40
1
 40
1
 40
1
 40
1
 10
104.775000
 20
99.659722
 30
0.0
 10
104.775000
 20
102.509383
 30
0.0
 10
104.915722
 20
104.069056
 30
0.0
 10
105.198334
 20
104.351666
 30
0.0
  0
SPLINE
  5
1a2
100
AcDbEntity
  8
0
 62
7
100
AcDbSpline
 70
8
 71
3
 72
8
 73
4
 74
0
 40
0
 40
0
 40
0
 40
0
 40
1
 40
1
 40
1
 40
1
 10
105.198334
 20
104.351666
 30
0.0
 10
105.485152
 20
104.638486
 30
0.0
 10
107.134691
 20
104.775000
 30
0.0
 10
110.313611
 20
104.775000
 30
0.0
  0
LINE
  5
1a3
100
AcDbEntity
  8
0
 62
7
100
AcDbLine
 10
110.313611
 20
104.775000
 30
0.0
 11
115.005555
 21
104.775000
 31
0.0
  0
LINE
  5
1a4
100
AcDbEntity
  8
0
 62
7
100
AcDbLine
 10
115.005555
 20
104.775000
 30
0.0
 11
115.005555
 21
99.659722
 31
0.0
  0
LINE
  5
1a5
100
AcDbEntity
  8
0
 62
7
100
AcDbLine
 10
115.005555
 20
99.659722
 30
0.0
 11
115.005555
 21
94.544445
 31
0.0
  0
LINE
  5
1a6
100
AcDbEntity
  8
0
 62
7
100
AcDbLine
 10
115.005555
 20
94.544445
 30
0.0
 11
110.313611
 21
94.544445
 31
0.0
  0
SPLINE
  5
1a7
100
AcDbEntity
  8
0
 62
7
100
AcDbSpline
 70
8
 71
3
 72
8
 73
4
 74
0
 40
0
 40
0
 40
0
 40
0
 40
1
 40
1
 40
1
 40
1
 10
110.313611
 20
94.544445
 30
0.0
 10
107.134691
 20
94.544445
 30
0.0
 10
105.485152
 20
94.680958
 30
0.0
 10
105.198334
 20
94.967777
 30
0.0
  0
LINE
  5
1a8
100
AcDbEntity
  8
0
 62
7
100
AcDbLine
 10
105.198334
 20
94.967777
 30
0.0
 11
105.198334
 21
94.967777
 31
0.0
  0
LINE
  5
1a9
100
AcDbEntity
  8
0
 62
7
100
AcDbLine
 10
33.161111
 20
109.890277
 30
0.0
 11
33.161111
 21
115.005555
 31
0.0
  0
LINE
  5
1aa
100
AcDbEntity
  8
0
 62
7
100
AcDbLine
 10
33.161111
 20
115.005555
 30
0.0
 11
38.276389
 21
115.005555
 31
0.0
  0
LINE
  5
1ab
100
AcDbEntity
  8
0
 62
7
100
AcDbLine
 10
38.276389
 20
115.005555
 30
0.0
 11
43.391666
 21
115.005555
 31
0.0
  0
LINE
  5
1ac
100
AcDbEntity
  8
0
 62
7
100
AcDbLine
 10
43.391666
 20
115.005555
 30
0.0
 11
43.391666
 21
109.890277
 31
0.0
  0
LINE
  5
1ad
100
AcDbEntity
  8
0
 62
7
100
AcDbLine
 10
43.391666
 20
109.890277
 30
0.0
 11
43.391666
 21
104.775000
 31
0.0
  0
LINE
  5
1ae
100
AcDbEntity
  8
0
 62
7
100
AcDbLine
 10
43.391666
 20
104.775000
 30
0.0
 11
38.276389
 21
104.775000
 31
0.0
  0
LINE
  5
1af
100
AcDbEntity
  8
0
 62
7
100
AcDbLine
 10
38.276389
 20
104.775000
 30
0.0
 11
33.161111
 21
104.775000
 31
0.0
  0
LINE
  5
1b0
100
AcDbEntity
  8
0
 62
7
100
AcDbLine
 10
33.161111
 20
104.775000
 30
0.0
 11
33.161111
 21
109.890277
 31
0.0
  0
LINE
  5
1b1
100
AcDbEntity
  8
0
 62
7
100
AcDbLine
 10
33.161111
 20
109.890277
 30
0.0
 11
33.161111
 21
109.890277
 31
0.0
  0
LINE
  5
1b2
100
AcDbEntity
  8
0
 62
7
100
AcDbLine
 10
53.622223
 20
109.890277
 30
0.0
 11
53.622223
 21
115.005555
 31
0.0
  0
LINE
  5
1b3
100
AcDbEntity
  8
0
 62
7
100
AcDbLine
 10
53.622223
 20
115.005555
 30
0.0
 11
58.737500
 21
115.005555
 31
0.0
  0
LINE
  5
1b4
100
AcDbEntity
  8
0
 62
7
100
AcDbLine
 10
58.737500
 20
115.005555
 30
0.0
 11
63.852777
 21
115.005555
 31
0.0
  0
LINE
  5
1b5
100
AcDbEntity
  8
0
 62
7
100
AcDbLine
 10
63.852777
 20
115.005555
 30
0.0
 11
63.852777
 21
110.313611
 31
0.0
  0
SPLINE
  5
1b6
100
AcDbEntity
  8
0
 62
7
100
AcDbSpline
 70
8
 71
3
 72
8
 73
4
 74
0
 40
0
 40
0
 40
0
 40
0
 40
1
 40
1
 40
1
 40
1
 10
63.852777
 20
110.313611
 30
0.0
 10
63.852777
 20
107.134691
 30
0.0
 10
63.716264
 20
105.485154
 30
0.0
 10
63.429445
 20
105.198334
 30
0.0
  0
SPLINE
  5
1b7
100
AcDbEntity
  8
0
 62
7
100
AcDbSpline
 70
8
 71
3
 72
8
 73
4
 74
0
 40
0
 40
0
 40
0
 40
0
 40
1
 40
1
 40
1
 40
1
 10
63.429445
 20
105.198334
 30
0.0
 10
63.142625
 20
104.911514
 30
0.0
 10
61.493086
 20
104.775000
 30
0.0
 10
58.314166
 20
104.775000
 30
0.0
  0
LINE
  5
1b8
100
AcDbEntity
  8
0
 62
7
100
AcDbLine
 10
58.314166
 20
104.775000
 30
0.0
 11
53.622223
 21
104.775000
 31
0.0
  0
LINE
  5
1b9
100
AcDbEntity
  8
0
 62
7
100
AcDbLine
 10
53.622223
 20
104.775000
 30
0.0
 11
53.622223
 21
109.890277
 31
0.0
  0
LINE
  5
1ba
100
AcDbEntity
  8
0
 62
7
100
AcDbLine
 10
53.622223
 20
109.890277
 30
0.0
 11
53.622223
 21
109.890277
 31
0.0
  0
LINE
  5
1bb
100
AcDbEntity
  8
0
 62
7
100
AcDbLine
 10
94.544445
 20
109.890277
 30
0.0
 11
94.544445
 21
115.005555
 31
0.0
  0
LINE
  5
1bc
100
AcDbEntity
  8
0
 62
7
100
AcDbLine
 10
94.544445
 20
115.005555
 30
0.0
 11
99.659723
 21
115.005555
 31
0.0
  0
LINE
  5
1bd
100
AcDbEntity
  8
0
 62
7
100
AcDbLine
 10
99.659723
 20
115.005555
 30
0.0
 11
104.775000
 21
115.005555
 31
0.0
  0
LINE
  5
1be
100
AcDbEntity
  8
0
 62
7
100
AcDbLine
 10
104.775000
 20
115.005555
 30
0.0
 11
104.775000
 21
110.313611
 31
0.0
  0
SPLINE
  5
1bf
100
AcDbEntity
  8
0
 62
7
100
AcDbSpline
 70
8
 71
3
 72
8
 73
4
 74
0
 40
0
 40
0
 40
0
 40
0
 40
1
 40
1
 40
1
 40
1
 10
104.775000
 20
110.313611
 30
0.0
 10
104.775000
 20
107.134691
 30
0.0
 10
104.638485
 20
105.485154
 30
0.0
 10
104.351666
 20
105.198334
 30
0.0
  0
SPLINE
  5
1c0
100
AcDbEntity
  8
0
 62
7
100
AcDbSpline
 70
8
 71
3
 72
8
 73
4
 74
0
 40
0
 40
0
 40
0
 40
0
 40
1
 40
1
 40
1
 40
1
 10
104.351666
 20
105.198334
 30
0.0
 10
104.064848
 20
104.911514
 30
0.0
 10
102.415309
 20
104.775000
 30
0.0
 10
99.236389
 20
104.775000
 30
0.0
  0
LINE
  5
1c1
100
AcDbEntity
  8
0
 62
7
100
AcDbLine
 10
99.236389
 20
104.775000
 30
0.0
 11
94.544445
 21
104.775000
 31
0.0
  0
LINE
  5
1c2
100
AcDbEntity
  8
0
 62
7
100
AcDbLine
 10
94.544445
 20
104.775000
 30
0.0
 11
94.544445
 21
109.890277
 31
0.0
  0
LINE
  5
1c3
100
AcDbEntity
  8
0
 62
7
100
AcDbLine
 10
94.544445
 20
109.890277
 30
0.0
 11
94.544445
 21
109.890277
 31
0.0
  0
ENDSEC
  0
SECTION
  2
OBJECTS
  0
DICTIONARY
  5
C
330
0
100
AcDbDictionary
  3
ACAD_GROUP
350
D
  3
ACAD_MLINESTYLE
350
17
  0
DICTIONARY
  5
D
330
C
100
AcDbDictionary
  0
DICTIONARY
  5
1A
330
C
100
AcDbDictionary
  0
DICTIONARY
  5
17
330
C
100
AcDbDictionary
  3
STANDARD
350
18
  0
DICTIONARY
  5
19
330
C
100
AcDbDictionary
  0
ENDSEC
  0
EOF
