  0
SECTION
  2
HEADER
  9
$ACADVER
  1
AC1014
  9
$HANDSEED
  5
FFFF
  9
$MEASUREMENT
 70
     1
  0
ENDSEC
  0
SECTION
  2
TABLES
  0
TABLE
  2
VPORT
  5
8
330
0
100
AcDbSymbolTable
 70
     4
  0
VPORT
  5
2E
330
8
100
AcDbSymbolTableRecord
100
AcDbViewportTableRecord
  2
*ACTIVE
 70
     0
 10
0.0
 20
0.0
 11
1.0
 21
1.0
 12
210.0
 22
148.5
 13
0.0
 23
0.0
 14
10.0
 24
10.0
 15
10.0
 25
10.0
 16
0.0
 26
0.0
 36
1.0
 17
0.0
 27
0.0
 37
0.0
 40
341.0
 41
1.24
 42
50.0
 43
0.0
 44
0.0
 50
0.0
 51
0.0
 71
     0
 72
   100
 73
     1
 74
     3
 75
     0
 76
     0
 77
     0
 78
     0
  0
ENDTAB
  0
TABLE
  2
LTYPE
  5
5
330
0
100
AcDbSymbolTable
 70
     1
  0
LTYPE
  5
14
330
5
100
AcDbSymbolTableRecord
100
AcDbLinetypeTableRecord
  2
BYBLOCK
 70
     0
  3

 72
    65
 73
     0
 40
0.0
  0
LTYPE
  5
15
330
5
100
AcDbSymbolTableRecord
100
AcDbLinetypeTableRecord
  2
BYLAYER
 70
     0
  3

 72
    65
 73
     0
 40
0.0
  0
LTYPE
  5
16
330
5
100
AcDbSymbolTableRecord
100
AcDbLinetypeTableRecord
  2
CONTINUOUS
 70
     0
  3
Solid line
 72
    65
 73
     0
 40
0.0
  0
ENDTAB
  0
TABLE
  2
LAYER
  5
2
100
AcDbSymbolTable
 70
1
  0
LAYER
  5
50
100
AcDbSymbolTableRecord
100
AcDbLayerTableRecord
  2
0
 70
0
  6
CONTINUOUS
  0
ENDTAB
  0
TABLE
  2
STYLE
  5
3
330
0
100
AcDbSymbolTable
 70
     1
  0
STYLE
  5
11
330
3
100
AcDbSymbolTableRecord
100
AcDbTextStyleTableRecord
  2
STANDARD
 70
     0
 40
0.0
 41
1.0
 50
0.0
 71
     0
 42
2.5
  3
txt
  4

  0
ENDTAB
  0
TABLE
  2
VIEW
  5
6
330
0
100
AcDbSymbolTable
 70
     0
  0
ENDTAB
  0
TABLE
  2
UCS
  5
7
330
0
100
AcDbSymbolTable
 70
     0
  0
ENDTAB
  0
TABLE
  2
APPID
  5
9
330
0
100
AcDbSymbolTable
 70
     2
  0
APPID
  5
12
330
9
100
AcDbSymbolTableRecord
100
AcDbRegAppTableRecord
  2
ACAD
 70
     0
  0
ENDTAB
  0
TABLE
  2
DIMSTYLE
  5
A
330
0
100
AcDbSymbolTable
 70
     1
  0
DIMSTYLE
105
27
330
A
100
AcDbSymbolTableRecord
100
AcDbDimStyleTableRecord
  2
ISO-25
 70
     0
  3

  4

  5

  6

  7

 40
1.0
 41
2.5
 42
0.625
 43
3.75
 44
1.25
 45
0.0
 46
0.0
 47
0.0
 48
0.0
140
2.5
141
2.5
142
0.0
143
0.03937007874016
144
1.0
145
0.0
146
1.0
147
0.625
 71
     0
 72
     0
 73
     0
 74
     0
 75
     0
 76
     0
 77
     1
 78
     8
170
     0
171
     3
172
     1
173
     0
174
     0
175
     0
176
     0
177
     0
178
     0
270
     2
271
     2
272
     2
273
     2
274
     3
340
11
275
     0
280
     0
281
     0
282
     0
283
     0
284
     8
285
     0
286
     0
287
     3
288
     0
  0
ENDTAB
  0
TABLE
  2
BLOCK_RECORD
  5
1
330
0
100
AcDbSymbolTable
 70
     1
  0
BLOCK_RECORD
  5
1F
330
1
100
AcDbSymbolTableRecord
100
AcDbBlockTableRecord
  2
*MODEL_SPACE
  0
BLOCK_RECORD
  5
1B
330
1
100
AcDbSymbolTableRecord
100
AcDbBlockTableRecord
  2
*PAPER_SPACE
  0
ENDTAB
  0
ENDSEC
  0
SECTION
  2
BLOCKS
  0
BLOCK
  5
20
330
1F
100
AcDbEntity
  8
0
100
AcDbBlockBegin
  2
*MODEL_SPACE
 70
     0
 10
0.0
 20
0.0
 30
0.0
  3
*MODEL_SPACE
  1

  0
ENDBLK
  5
21
330
1F
100
AcDbEntity
  8
0
100
AcDbBlockEnd
  0
BLOCK
  5
1C
330
1B
100
AcDbEntity
 67
     1
  8
0
100
AcDbBlockBegin
  2
*PAPER_SPACE
  1

  0
ENDBLK
  5
1D
330
1B
100
AcDbEntity
 67
     1
  8
0
100
AcDbBlockEnd
  0
ENDSEC
  0
SECTION
  2
ENTITIES
  0
LINE
  5
100
100
AcDbEntity
  8
0
 62
7
100
AcDbLine
 10
0.000000
 20
63.852777
 30
0.0
 11
0.000000
 21
127.705555
 31
0.0
  0
LINE
  5
101
100
AcDbEntity
  8
0
 62
7
100
AcDbLine
 10
0.000000
 20
127.705555
 30
0.0
 11
63.852777
 21
127.705555
 31
0.0
  0
LINE
  5
102
100
AcDbEntity
  8
0
 62
7
100
AcDbLine
 10
63.852777
 20
127.705555
 30
0.0
 11
127.705555
 21
127.705555
 31
0.0
  0
LINE
  5
103
100
AcDbEntity
  8
0
 62
7
100
AcDbLine
 10
127.705555
 20
127.705555
 30
0.0
 11
127.705555
 21
63.852777
 31
0.0
  0
LINE
  5
104
100
AcDbEntity
  8
0
 62
7
100
AcDbLine
 10
127.705555
 20
63.852777
 30
0.0
 11
127.705555
 21
-0.000000
 31
0.0
  0
LINE
  5
105
100
AcDbEntity
  8
0
 62
7
100
AcDbLine
 10
127.705555
 20
-0.000000
 30
0.0
 11
63.852777
 21
-0.000000
 31
0.0
  0
LINE
  5
106
100
AcDbEntity
  8
0
 62
7
100
AcDbLine
 10
63.852777
 20
-0.000000
 30
0.0
 11
0.000000
 21
-0.000000
 31
0.0
  0
LINE
  5
107
100
AcDbEntity
  8
0
 62
7
100
AcDbLine
 10
0.000000
 20
-0.000000
 30
0.0
 11
0.000000
 21
63.852777
 31
0.0
  0
LINE
  5
108
100
AcDbEntity
  8
0
 62
7
100
AcDbLine
 10
0.000000
 20
63.852777
 30
0.0
 11
0.000000
 21
63.852777
 31
0.0
  0
LINE
  5
109
100
AcDbEntity
  8
0
 62
7
100
AcDbLine
 10
127.352777
 20
63.852777
 30
0.0
 11
127.352777
 21
127.352777
 31
0.0
  0
LINE
  5
10a
100
AcDbEntity
  8
0
 62
7
100
AcDbLine
 10
127.352777
 20
127.352777
 30
0.0
 11
63.852777
 21
127.352777
 31
0.0
  0
LINE
  5
10b
100
AcDbEntity
  8
0
 62
7
100
AcDbLine
 10
63.852777
 20
127.352777
 30
0.0
 11
0.352777
 21
127.352777
 31
0.0
  0
LINE
  5
10c
100
AcDbEntity
  8
0
 62
7
100
AcDbLine
 10
0.352777
 20
127.352777
 30
0.0
 11
0.352777
 21
63.852777
 31
0.0
  0
LINE
  5
10d
100
AcDbEntity
  8
0
 62
7
100
AcDbLine
 10
0.352777
 20
63.852777
 30
0.0
 11
0.352777
 21
0.352777
 31
0.0
  0
LINE
  5
10e
100
AcDbEntity
  8
0
 62
7
100
AcDbLine
 10
0.352777
 20
0.352777
 30
0.0
 11
63.852777
 21
0.352777
 31
0.0
  0
LINE
  5
10f
100
AcDbEntity
  8
0
 62
7
100
AcDbLine
 10
63.852777
 20
0.352777
 30
0.0
 11
127.352777
 21
0.352777
 31
0.0
  0
LINE
  5
110
100
AcDbEntity
  8
0
 62
7
100
AcDbLine
 10
127.352777
 20
0.352777
 30
0.0
 11
127.352777
 21
63.852777
 31
0.0
  0
LINE
  5
111
100
AcDbEntity
  8
0
 62
7
100
AcDbLine
 10
127.352777
 20
63.852777
 30
0.0
 11
127.352777
 21
63.852777
 31
0.0
  0
LINE
  5
112
100
AcDbEntity
  8
0
 62
7
100
AcDbLine
 10
8.466666
 20
63.852777
 30
0.0
 11
8.466666
 21
119.238889
 31
0.0
  0
LINE
  5
113
100
AcDbEntity
  8
0
 62
7
100
AcDbLine
 10
8.466666
 20
119.238889
 30
0.0
 11
14.111111
 21
119.238889
 31
0.0
  0
LINE
  5
114
100
AcDbEntity
  8
0
 62
7
100
AcDbLine
 10
14.111111
 20
119.238889
 30
0.0
 11
19.755555
 21
119.238889
 31
0.0
  0
LINE
  5
115
100
AcDbEntity
  8
0
 62
7
100
AcDbLine
 10
19.755555
 20
119.238889
 30
0.0
 11
19.755555
 21
86.077777
 31
0.0
  0
LINE
  5
116
100
AcDbEntity
  8
0
 62
7
100
AcDbLine
 10
19.755555
 20
86.077777
 30
0.0
 11
19.755555
 21
52.916666
 31
0.0
  0
LINE
  5
117
100
AcDbEntity
  8
0
 62
7
100
AcDbLine
 10
19.755555
 20
52.916666
 30
0.0
 11
24.800277
 21
52.916666
 31
0.0
  0
SPLINE
  5
118
100
AcDbEntity
  8
0
 62
7
100
AcDbSpline
 70
8
 71
3
 72
8
 73
4
 74
0
 40
0
 40
0
 40
0
 40
0
 40
1
 40
1
 40
1
 40
1
 10
24.800277
 20
52.916666
 30
0.0
 10
28.253580
 20
52.916666
 30
0.0
 10
29.978546
 20
52.783122
 30
0.0
 10
30.268334
 20
52.493334
 30
0.0
  0
SPLINE
  5
119
100
AcDbEntity
  8
0
 62
7
100
AcDbSpline
 70
8
 71
3
 72
8
 73
4
 74
0
 40
0
 40
0
 40
0
 40
0
 40
1
 40
1
 40
1
 40
1
 10
30.268334
 20
52.493334
 30
0.0
 10
30.578196
 20
52.183471
 30
0.0
 10
30.691666
 20
49.318334
 30
0.0
 10
30.691666
 20
41.804166
 30
0.0
  0
SPLINE
  5
11a
100
AcDbEntity
  8
0
 62
7
100
AcDbSpline
 70
8
 71
3
 72
8
 73
4
 74
0
 40
0
 40
0
 40
0
 40
0
 40
1
 40
1
 40
1
 40
1
 10
30.691666
 20
41.804166
 30
0.0
 10
30.691666
 20
34.290000
 30
0.0
 10
30.578196
 20
31.424862
 30
0.0
 10
30.268334
 20
31.115000
 30
0.0
  0
SPLINE
  5
11b
100
AcDbEntity
  8
0
 62
7
100
AcDbSpline
 70
8
 71
3
 72
8
 73
4
 74
0
 40
0
 40
0
 40
0
 40
0
 40
1
 40
1
 40
1
 40
1
 10
30.268334
 20
31.115000
 30
0.0
 10
29.978546
 20
30.825211
 30
0.0
 10
28.253580
 20
30.691666
 30
0.0
 10
24.800277
 20
30.691666
 30
0.0
  0
LINE
  5
11c
100
AcDbEntity
  8
0
 62
7
100
AcDbLine
 10
24.800277
 20
30.691666
 30
0.0
 11
19.755555
 21
30.691666
 31
0.0
  0
LINE
  5
11d
100
AcDbEntity
  8
0
 62
7
100
AcDbLine
 10
19.755555
 20
30.691666
 30
0.0
 11
19.755555
 21
25.223611
 31
0.0
  0
LINE
  5
11e
100
AcDbEntity
  8
0
 62
7
100
AcDbLine
 10
19.755555
 20
25.223611
 30
0.0
 11
19.755555
 21
19.755555
 31
0.0
  0
LINE
  5
11f
100
AcDbEntity
  8
0
 62
7
100
AcDbLine
 10
19.755555
 20
19.755555
 30
0.0
 11
25.223611
 21
19.755555
 31
0.0
  0
LINE
  5
120
100
AcDbEntity
  8
0
 62
7
100
AcDbLine
 10
25.223611
 20
19.755555
 30
0.0
 11
30.691666
 21
19.755555
 31
0.0
  0
LINE
  5
121
100
AcDbEntity
  8
0
 62
7
100
AcDbLine
 10
30.691666
 20
19.755555
 30
0.0
 11
30.691666
 21
24.800277
 31
0.0
  0
SPLINE
  5
122
100
AcDbEntity
  8
0
 62
7
100
AcDbSpline
 70
8
 71
3
 72
8
 73
4
 74
0
 40
0
 40
0
 40
0
 40
0
 40
1
 40
1
 40
1
 40
1
 10
30.691666
 20
24.800277
 30
0.0
 10
30.691666
 20
28.253581
 30
0.0
 10
30.825213
 20
29.978544
 30
0.0
 10
31.115000
 20
30.268334
 30
0.0
  0
SPLINE
  5
123
100
AcDbEntity
  8
0
 62
7
100
AcDbSpline
 70
8
 71
3
 72
8
 73
4
 74
0
 40
0
 40
0
 40
0
 40
0
 40
1
 40
1
 40
1
 40
1
 10
31.115000
 20
30.268334
 30
0.0
 10
31.702750
 20
30.856082
 30
0.0
 10
40.616695
 20
30.856082
 30
0.0
 10
41.204445
 20
30.268334
 30
0.0
  0
SPLINE
  5
124
100
AcDbEntity
  8
0
 62
7
100
AcDbSpline
 70
8
 71
3
 72
8
 73
4
 74
0
 40
0
 40
0
 40
0
 40
0
 40
1
 40
1
 40
1
 40
1
 10
41.204445
 20
30.268334
 30
0.0
 10
41.494234
 20
29.978544
 30
0.0
 10
41.627777
 20
28.253581
 30
0.0
 10
41.627777
 20
24.800277
 30
0.0
  0
LINE
  5
125
100
AcDbEntity
  8
0
 62
7
100
AcDbLine
 10
41.627777
 20
24.800277
 30
0.0
 11
41.627777
 21
19.755555
 31
0.0
  0
LINE
  5
126
100
AcDbEntity
  8
0
 62
7
100
AcDbLine
 10
41.627777
 20
19.755555
 30
0.0
 11
58.208334
 21
19.755555
 31
0.0
  0
LINE
  5
127
100
AcDbEntity
  8
0
 62
7
100
AcDbLine
 10
58.208334
 20
19.755555
 30
0.0
 11
74.788889
 21
19.755555
 31
0.0
  0
LINE
  5
128
100
AcDbEntity
  8
0
 62
7
100
AcDbLine
 10
74.788889
 20
19.755555
 30
0.0
 11
74.788889
 21
24.800277
 31
0.0
  0
SPLINE
  5
129
100
AcDbEntity
  8
0
 62
7
100
AcDbSpline
 70
8
 71
3
 72
8
 73
4
 74
0
 40
0
 40
0
 40
0
 40
0
 40
1
 40
1
 40
1
 40
1
 10
74.788889
 20
24.800277
 30
0.0
 10
74.788889
 20
28.253581
 30
0.0
 10
74.922432
 20
29.978544
 30
0.0
 10
75.212223
 20
30.268334
 30
0.0
  0
SPLINE
  5
12a
100
AcDbEntity
  8
0
 62
7
100
AcDbSpline
 70
8
 71
3
 72
8
 73
4
 74
0
 40
0
 40
0
 40
0
 40
0
 40
1
 40
1
 40
1
 40
1
 10
75.212223
 20
30.268334
 30
0.0
 10
75.503345
 20
30.559456
 30
0.0
 10
77.266173
 20
30.691666
 30
0.0
 10
80.856666
 20
30.691666
 30
0.0
  0
LINE
  5
12b
100
AcDbEntity
  8
0
 62
7
100
AcDbLine
 10
80.856666
 20
30.691666
 30
0.0
 11
86.077777
 21
30.691666
 31
0.0
  0
LINE
  5
12c
100
AcDbEntity
  8
0
 62
7
100
AcDbLine
 10
86.077777
 20
30.691666
 30
0.0
 11
86.077777
 21
25.223611
 31
0.0
  0
LINE
  5
12d
100
AcDbEntity
  8
0
 62
7
100
AcDbLine
 10
86.077777
 20
25.223611
 30
0.0
 11
86.077777
 21
19.755555
 31
0.0
  0
LINE
  5
12e
100
AcDbEntity
  8
0
 62
7
100
AcDbLine
 10
86.077777
 20
19.755555
 30
0.0
 11
91.545834
 21
19.755555
 31
0.0
  0
LINE
  5
12f
100
AcDbEntity
  8
0
 62
7
100
AcDbLine
 10
91.545834
 20
19.755555
 30
0.0
 11
97.013889
 21
19.755555
 31
0.0
  0
LINE
  5
130
100
AcDbEntity
  8
0
 62
7
100
AcDbLine
 10
97.013889
 20
19.755555
 30
0.0
 11
97.013889
 21
25.223611
 31
0.0
  0
LINE
  5
131
100
AcDbEntity
  8
0
 62
7
100
AcDbLine
 10
97.013889
 20
25.223611
 30
0.0
 11
97.013889
 21
30.691666
 31
0.0
  0
LINE
  5
132
100
AcDbEntity
  8
0
 62
7
100
AcDbLine
 10
97.013889
 20
30.691666
 30
0.0
 11
102.058611
 21
30.691666
 31
0.0
  0
SPLINE
  5
133
100
AcDbEntity
  8
0
 62
7
100
AcDbSpline
 70
8
 71
3
 72
8
 73
4
 74
0
 40
0
 40
0
 40
0
 40
0
 40
1
 40
1
 40
1
 40
1
 10
102.058611
 20
30.691666
 30
0.0
 10
105.511914
 20
30.691666
 30
0.0
 10
107.236878
 20
30.558122
 30
0.0
 10
107.526666
 20
30.268334
 30
0.0
  0
SPLINE
  5
134
100
AcDbEntity
  8
0
 62
7
100
AcDbSpline
 70
8
 71
3
 72
8
 73
4
 74
0
 40
0
 40
0
 40
0
 40
0
 40
1
 40
1
 40
1
 40
1
 10
107.526666
 20
30.268334
 30
0.0
 10
107.816456
 20
29.978544
 30
0.0
 10
107.950000
 20
28.253581
 30
0.0
 10
107.950000
 20
24.800277
 30
0.0
  0
LINE
  5
135
100
AcDbEntity
  8
0
 62
7
100
AcDbLine
 10
107.950000
 20
24.800277
 30
0.0
 11
107.950000
 21
19.755555
 31
0.0
  0
LINE
  5
136
100
AcDbEntity
  8
0
 62
7
100
AcDbLine
 10
107.950000
 20
19.755555
 30
0.0
 11
113.594445
 21
19.755555
 31
0.0
  0
LINE
  5
137
100
AcDbEntity
  8
0
 62
7
100
AcDbLine
 10
113.594445
 20
19.755555
 30
0.0
 11
119.238889
 21
19.755555
 31
0.0
  0
LINE
  5
138
100
AcDbEntity
  8
0
 62
7
100
AcDbLine
 10
119.238889
 20
19.755555
 30
0.0
 11
119.238889
 21
14.111111
 31
0.0
  0
LINE
  5
139
100
AcDbEntity
  8
0
 62
7
100
AcDbLine
 10
119.238889
 20
14.111111
 30
0.0
 11
119.238889
 21
8.466666
 31
0.0
  0
LINE
  5
13a
100
AcDbEntity
  8
0
 62
7
100
AcDbLine
 10
119.238889
 20
8.466666
 30
0.0
 11
63.852777
 21
8.466666
 31
0.0
  0
LINE
  5
13b
100
AcDbEntity
  8
0
 62
7
100
AcDbLine
 10
63.852777
 20
8.466666
 30
0.0
 11
8.466666
 21
8.466666
 31
0.0
  0
LINE
  5
13c
100
AcDbEntity
  8
0
 62
7
100
AcDbLine
 10
8.466666
 20
8.466666
 30
0.0
 11
8.466666
 21
63.852777
 31
0.0
  0
LINE
  5
13d
100
AcDbEntity
  8
0
 62
7
100
AcDbLine
 10
8.466666
 20
63.852777
 30
0.0
 11
8.466666
 21
63.852777
 31
0.0
  0
SPLINE
  5
13e
100
AcDbEntity
  8
0
 62
7
100
AcDbSpline
 70
8
 71
3
 72
8
 73
4
 74
0
 40
0
 40
0
 40
0
 40
0
 40
1
 40
1
 40
1
 40
1
 10
42.051111
 20
31.115000
 30
0.0
 10
41.446655
 20
31.719456
 30
0.0
 10
41.446655
 20
51.888876
 30
0.0
 10
42.051111
 20
52.493334
 30
0.0
  0
SPLINE
  5
13f
100
AcDbEntity
  8
0
 62
7
100
AcDbSpline
 70
8
 71
3
 72
8
 73
4
 74
0
 40
0
 40
0
 40
0
 40
0
 40
1
 40
1
 40
1
 40
1
 10
42.051111
 20
52.493334
 30
0.0
 10
42.342234
 20
52.784456
 30
0.0
 10
44.105061
 20
52.916666
 30
0.0
 10
47.695555
 20
52.916666
 30
0.0
  0
LINE
  5
140
100
AcDbEntity
  8
0
 62
7
100
AcDbLine
 10
47.695555
 20
52.916666
 30
0.0
 11
52.916666
 21
52.916666
 31
0.0
  0
LINE
  5
141
100
AcDbEntity
  8
0
 62
7
100
AcDbLine
 10
52.916666
 20
52.916666
 30
0.0
 11
52.916666
 21
41.804166
 31
0.0
  0
LINE
  5
142
100
AcDbEntity
  8
0
 62
7
100
AcDbLine
 10
52.916666
 20
41.804166
 30
0.0
 11
52.916666
 21
30.691666
 31
0.0
  0
LINE
  5
143
100
AcDbEntity
  8
0
 62
7
100
AcDbLine
 10
52.916666
 20
30.691666
 30
0.0
 11
47.695555
 21
30.691666
 31
0.0
  0
SPLINE
  5
144
100
AcDbEntity
  8
0
 62
7
100
AcDbSpline
 70
8
 71
3
 72
8
 73
4
 74
0
 40
0
 40
0
 40
0
 40
0
 40
1
 40
1
 40
1
 40
1
 10
47.695555
 20
30.691666
 30
0.0
 10
44.105061
 20
30.691666
 30
0.0
 10
42.342234
 20
30.823878
 30
0.0
 10
42.051111
 20
31.115000
 30
0.0
  0
LINE
  5
145
100
AcDbEntity
  8
0
 62
7
100
AcDbLine
 10
42.051111
 20
31.115000
 30
0.0
 11
42.051111
 21
31.115000
 31
0.0
  0
LINE
  5
146
100
AcDbEntity
  8
0
 62
7
100
AcDbLine
 10
63.852777
 20
36.159722
 30
0.0
 11
63.852777
 21
41.627777
 31
0.0
  0
LINE
  5
147
100
AcDbEntity
  8
0
 62
7
100
AcDbLine
 10
63.852777
 20
41.627777
 30
0.0
 11
69.320834
 21
41.627777
 31
0.0
  0
LINE
  5
148
100
AcDbEntity
  8
0
 62
7
100
AcDbLine
 10
69.320834
 20
41.627777
 30
0.0
 11
74.788889
 21
41.627777
 31
0.0
  0
LINE
  5
149
100
AcDbEntity
  8
0
 62
7
100
AcDbLine
 10
74.788889
 20
41.627777
 30
0.0
 11
74.788889
 21
36.583055
 31
0.0
  0
SPLINE
  5
14a
100
AcDbEntity
  8
0
 62
7
100
AcDbSpline
 70
8
 71
3
 72
8
 73
4
 74
0
 40
0
 40
0
 40
0
 40
0
 40
1
 40
1
 40
1
 40
1
 10
74.788889
 20
36.583055
 30
0.0
 10
74.788889
 20
33.129752
 30
0.0
 10
74.655345
 20
31.404789
 30
0.0
 10
74.365555
 20
31.115000
 30
0.0
  0
SPLINE
  5
14b
100
AcDbEntity
  8
0
 62
7
100
AcDbSpline
 70
8
 71
3
 72
8
 73
4
 74
0
 40
0
 40
0
 40
0
 40
0
 40
1
 40
1
 40
1
 40
1
 10
74.365555
 20
31.115000
 30
0.0
 10
74.075766
 20
30.825211
 30
0.0
 10
72.350802
 20
30.691666
 30
0.0
 10
68.897500
 20
30.691666
 30
0.0
  0
LINE
  5
14c
100
AcDbEntity
  8
0
 62
7
100
AcDbLine
 10
68.897500
 20
30.691666
 30
0.0
 11
63.852777
 21
30.691666
 31
0.0
  0
LINE
  5
14d
100
AcDbEntity
  8
0
 62
7
100
AcDbLine
 10
63.852777
 20
30.691666
 30
0.0
 11
63.852777
 21
36.159722
 31
0.0
  0
LINE
  5
14e
100
AcDbEntity
  8
0
 62
7
100
AcDbLine
 10
63.852777
 20
36.159722
 30
0.0
 11
63.852777
 21
36.159722
 31
0.0
  0
SPLINE
  5
14f
100
AcDbEntity
  8
0
 62
7
100
AcDbSpline
 70
8
 71
3
 72
8
 73
4
 74
0
 40
0
 40
0
 40
0
 40
0
 40
1
 40
1
 40
1
 40
1
 10
108.373334
 20
31.115000
 30
0.0
 10
108.083544
 20
31.404789
 30
0.0
 10
107.950000
 20
33.129752
 30
0.0
 10
107.950000
 20
36.583055
 30
0.0
  0
LINE
  5
150
100
AcDbEntity
  8
0
 62
7
100
AcDbLine
 10
107.950000
 20
36.583055
 30
0.0
 11
107.950000
 21
41.627777
 31
0.0
  0
LINE
  5
151
100
AcDbEntity
  8
0
 62
7
100
AcDbLine
 10
107.950000
 20
41.627777
 30
0.0
 11
113.594445
 21
41.627777
 31
0.0
  0
LINE
  5
152
100
AcDbEntity
  8
0
 62
7
100
AcDbLine
 10
113.594445
 20
41.627777
 30
0.0
 11
119.238889
 21
41.627777
 31
0.0
  0
LINE
  5
153
100
AcDbEntity
  8
0
 62
7
100
AcDbLine
 10
119.238889
 20
41.627777
 30
0.0
 11
119.238889
 21
36.159722
 31
0.0
  0
LINE
  5
154
100
AcDbEntity
  8
0
 62
7
100
AcDbLine
 10
119.238889
 20
36.159722
 30
0.0
 11
119.238889
 21
30.691666
 31
0.0
  0
LINE
  5
155
100
AcDbEntity
  8
0
 62
7
100
AcDbLine
 10
119.238889
 20
30.691666
 30
0.0
 11
114.017777
 21
30.691666
 31
0.0
  0
SPLINE
  5
156
100
AcDbEntity
  8
0
 62
7
100
AcDbSpline
 70
8
 71
3
 72
8
 73
4
 74
0
 40
0
 40
0
 40
0
 40
0
 40
1
 40
1
 40
1
 40
1
 10
114.017777
 20
30.691666
 30
0.0
 10
110.427284
 20
30.691666
 30
0.0
 10
108.664456
 20
30.823878
 30
0.0
 10
108.373334
 20
31.115000
 30
0.0
  0
LINE
  5
157
100
AcDbEntity
  8
0
 62
7
100
AcDbLine
 10
108.373334
 20
31.115000
 30
0.0
 11
108.373334
 21
31.115000
 31
0.0
  0
LINE
  5
158
100
AcDbEntity
  8
0
 62
7
100
AcDbLine
 10
86.077777
 20
47.272222
 30
0.0
 11
86.077777
 21
52.916666
 31
0.0
  0
LINE
  5
159
100
AcDbEntity
  8
0
 62
7
100
AcDbLine
 10
86.077777
 20
52.916666
 30
0.0
 11
74.965277
 21
52.916666
 31
0.0
  0
LINE
  5
15a
100
AcDbEntity
  8
0
 62
7
100
AcDbLine
 10
74.965277
 20
52.916666
 30
0.0
 11
63.852777
 21
52.916666
 31
0.0
  0
LINE
  5
15b
100
AcDbEntity
  8
0
 62
7
100
AcDbLine
 10
63.852777
 20
52.916666
 30
0.0
 11
63.852777
 21
57.961389
 31
0.0
  0
SPLINE
  5
15c
100
AcDbEntity
  8
0
 62
7
100
AcDbSpline
 70
8
 71
3
 72
8
 73
4
 74
0
 40
0
 40
0
 40
0
 40
0
 40
1
 40
1
 40
1
 40
1
 10
63.852777
 20
57.961389
 30
0.0
 10
63.852777
 20
61.414691
 30
0.0
 10
63.986321
 20
63.139655
 30
0.0
 10
64.276111
 20
63.429445
 30
0.0
  0
SPLINE
  5
15d
100
AcDbEntity
  8
0
 62
7
100
AcDbSpline
 70
8
 71
3
 72
8
 73
4
 74
0
 40
0
 40
0
 40
0
 40
0
 40
1
 40
1
 40
1
 40
1
 10
64.276111
 20
63.429445
 30
0.0
 10
64.593046
 20
63.746380
 30
0.0
 10
68.760309
 20
63.852777
 30
0.0
 10
80.856666
 20
63.852777
 30
0.0
  0
LINE
  5
15e
100
AcDbEntity
  8
0
 62
7
100
AcDbLine
 10
80.856666
 20
63.852777
 30
0.0
 11
97.013889
 21
63.852777
 31
0.0
  0
LINE
  5
15f
100
AcDbEntity
  8
0
 62
7
100
AcDbLine
 10
97.013889
 20
63.852777
 30
0.0
 11
97.013889
 21
52.740277
 31
0.0
  0
LINE
  5
160
100
AcDbEntity
  8
0
 62
7
100
AcDbLine
 10
97.013889
 20
52.740277
 30
0.0
 11
97.013889
 21
41.627777
 31
0.0
  0
LINE
  5
161
100
AcDbEntity
  8
0
 62
7
100
AcDbLine
 10
97.013889
 20
41.627777
 30
0.0
 11
91.545834
 21
41.627777
 31
0.0
  0
LINE
  5
162
100
AcDbEntity
  8
0
 62
7
100
AcDbLine
 10
91.545834
 20
41.627777
 30
0.0
 11
86.077777
 21
41.627777
 31
0.0
  0
LINE
  5
163
100
AcDbEntity
  8
0
 62
7
100
AcDbLine
 10
86.077777
 20
41.627777
 30
0.0
 11
86.077777
 21
47.272222
 31
0.0
  0
LINE
  5
164
100
AcDbEntity
  8
0
 62
7
100
AcDbLine
 10
86.077777
 20
47.272222
 30
0.0
 11
86.077777
 21
47.272222
 31
0.0
  0
SPLINE
  5
165
100
AcDbEntity
  8
0
 62
7
100
AcDbSpline
 70
8
 71
3
 72
8
 73
4
 74
0
 40
0
 40
0
 40
0
 40
0
 40
1
 40
1
 40
1
 40
1
 10
31.115000
 20
53.340000
 30
0.0
 10
30.798065
 20
53.656935
 30
0.0
 10
30.691666
 20
57.824197
 30
0.0
 10
30.691666
 20
69.920555
 30
0.0
  0
LINE
  5
166
100
AcDbEntity
  8
0
 62
7
100
AcDbLine
 10
30.691666
 20
69.920555
 30
0.0
 11
30.691666
 21
86.077777
 31
0.0
  0
LINE
  5
167
100
AcDbEntity
  8
0
 62
7
100
AcDbLine
 10
30.691666
 20
86.077777
 30
0.0
 11
25.576389
 21
86.077777
 31
0.0
  0
LINE
  5
168
100
AcDbEntity
  8
0
 62
7
100
AcDbLine
 10
25.576389
 20
86.077777
 30
0.0
 11
20.461111
 21
86.077777
 31
0.0
  0
LINE
  5
169
100
AcDbEntity
  8
0
 62
7
100
AcDbLine
 10
20.461111
 20
86.077777
 30
0.0
 11
20.461111
 21
91.545834
 31
0.0
  0
LINE
  5
16a
100
AcDbEntity
  8
0
 62
7
100
AcDbLine
 10
20.461111
 20
91.545834
 30
0.0
 11
20.461111
 21
97.013889
 31
0.0
  0
LINE
  5
16b
100
AcDbEntity
  8
0
 62
7
100
AcDbLine
 10
20.461111
 20
97.013889
 30
0.0
 11
31.044445
 21
97.013889
 31
0.0
  0
LINE
  5
16c
100
AcDbEntity
  8
0
 62
7
100
AcDbLine
 10
31.044445
 20
97.013889
 30
0.0
 11
41.627777
 21
97.013889
 31
0.0
  0
LINE
  5
16d
100
AcDbEntity
  8
0
 62
7
100
AcDbLine
 10
41.627777
 20
97.013889
 30
0.0
 11
41.627777
 21
91.545834
 31
0.0
  0
LINE
  5
16e
100
AcDbEntity
  8
0
 62
7
100
AcDbLine
 10
41.627777
 20
91.545834
 30
0.0
 11
41.627777
 21
86.077777
 31
0.0
  0
LINE
  5
16f
100
AcDbEntity
  8
0
 62
7
100
AcDbLine
 10
41.627777
 20
86.077777
 30
0.0
 11
47.272223
 21
86.077777
 31
0.0
  0
LINE
  5
170
100
AcDbEntity
  8
0
 62
7
100
AcDbLine
 10
47.272223
 20
86.077777
 30
0.0
 11
52.916666
 21
86.077777
 31
0.0
  0
LINE
  5
171
100
AcDbEntity
  8
0
 62
7
100
AcDbLine
 10
52.916666
 20
86.077777
 30
0.0
 11
52.916666
 21
91.545834
 31
0.0
  0
LINE
  5
172
100
AcDbEntity
  8
0
 62
7
100
AcDbLine
 10
52.916666
 20
91.545834
 30
0.0
 11
52.916666
 21
97.013889
 31
0.0
  0
LINE
  5
173
100
AcDbEntity
  8
0
 62
7
100
AcDbLine
 10
52.916666
 20
97.013889
 30
0.0
 11
57.961389
 21
97.013889
 31
0.0
  0
SPLINE
  5
174
100
AcDbEntity
  8
0
 62
7
100
AcDbSpline
 70
8
 71
3
 72
8
 73
4
 74
0
 40
0
 40
0
 40
0
 40
0
 40
1
 40
1
 40
1
 40
1
 10
57.961389
 20
97.013889
 30
0.0
 10
61.414691
 20
97.013889
 30
0.0
 10
63.139655
 20
96.880342
 30
0.0
 10
63.429445
 20
96.590555
 30
0.0
  0
SPLINE
  5
175
100
AcDbEntity
  8
0
 62
7
100
AcDbSpline
 70
8
 71
3
 72
8
 73
4
 74
0
 40
0
 40
0
 40
0
 40
0
 40
1
 40
1
 40
1
 40
1
 10
63.429445
 20
96.590555
 30
0.0
 10
63.719234
 20
96.300767
 30
0.0
 10
63.852777
 20
94.575802
 30
0.0
 10
63.852777
 20
91.122500
 30
0.0
  0
LINE
  5
176
100
AcDbEntity
  8
0
 62
7
100
AcDbLine
 10
63.852777
 20
91.122500
 30
0.0
 11
63.852777
 21
86.077777
 31
0.0
  0
LINE
  5
177
100
AcDbEntity
  8
0
 62
7
100
AcDbLine
 10
63.852777
 20
86.077777
 30
0.0
 11
69.320834
 21
86.077777
 31
0.0
  0
LINE
  5
178
100
AcDbEntity
  8
0
 62
7
100
AcDbLine
 10
69.320834
 20
86.077777
 30
0.0
 11
74.788889
 21
86.077777
 31
0.0
  0
LINE
  5
179
100
AcDbEntity
  8
0
 62
7
100
AcDbLine
 10
74.788889
 20
86.077777
 30
0.0
 11
74.788889
 21
80.433334
 31
0.0
  0
LINE
  5
17a
100
AcDbEntity
  8
0
 62
7
100
AcDbLine
 10
74.788889
 20
80.433334
 30
0.0
 11
74.788889
 21
74.788889
 31
0.0
  0
LINE
  5
17b
100
AcDbEntity
  8
0
 62
7
100
AcDbLine
 10
74.788889
 20
74.788889
 30
0.0
 11
69.320834
 21
74.788889
 31
0.0
  0
LINE
  5
17c
100
AcDbEntity
  8
0
 62
7
100
AcDbLine
 10
69.320834
 20
74.788889
 30
0.0
 11
63.852777
 21
74.788889
 31
0.0
  0
LINE
  5
17d
100
AcDbEntity
  8
0
 62
7
100
AcDbLine
 10
63.852777
 20
74.788889
 30
0.0
 11
63.852777
 21
69.744166
 31
0.0
  0
SPLINE
  5
17e
100
AcDbEntity
  8
0
 62
7
100
AcDbSpline
 70
8
 71
3
 72
8
 73
4
 74
0
 40
0
 40
0
 40
0
 40
0
 40
1
 40
1
 40
1
 40
1
 10
63.852777
 20
69.744166
 30
0.0
 10
63.852777
 20
66.290864
 30
0.0
 10
63.719234
 20
64.565900
 30
0.0
 10
63.429445
 20
64.276111
 30
0.0
  0
SPLINE
  5
17f
100
AcDbEntity
  8
0
 62
7
100
AcDbSpline
 70
8
 71
3
 72
8
 73
4
 74
0
 40
0
 40
0
 40
0
 40
0
 40
1
 40
1
 40
1
 40
1
 10
63.429445
 20
64.276111
 30
0.0
 10
63.139655
 20
63.986321
 30
0.0
 10
61.414691
 20
63.852777
 30
0.0
 10
57.961389
 20
63.852777
 30
0.0
  0
LINE
  5
180
100
AcDbEntity
  8
0
 62
7
100
AcDbLine
 10
57.961389
 20
63.852777
 30
0.0
 11
52.916666
 21
63.852777
 31
0.0
  0
LINE
  5
181
100
AcDbEntity
  8
0
 62
7
100
AcDbLine
 10
52.916666
 20
63.852777
 30
0.0
 11
52.916666
 21
69.320834
 31
0.0
  0
LINE
  5
182
100
AcDbEntity
  8
0
 62
7
100
AcDbLine
 10
52.916666
 20
69.320834
 30
0.0
 11
52.916666
 21
74.788889
 31
0.0
  0
LINE
  5
183
100
AcDbEntity
  8
0
 62
7
100
AcDbLine
 10
52.916666
 20
74.788889
 30
0.0
 11
47.272223
 21
74.788889
 31
0.0
  0
LINE
  5
184
100
AcDbEntity
  8
0
 62
7
100
AcDbLine
 10
47.272223
 20
74.788889
 30
0.0
 11
41.627777
 21
74.788889
 31
0.0
  0
LINE
  5
185
100
AcDbEntity
  8
0
 62
7
100
AcDbLine
 10
41.627777
 20
74.788889
 30
0.0
 11
41.627777
 21
64.276111
 31
0.0
  0
SPLINE
  5
186
100
AcDbEntity
  8
0
 62
7
100
AcDbSpline
 70
8
 71
3
 72
8
 73
4
 74
0
 40
0
 40
0
 40
0
 40
0
 40
1
 40
1
 40
1
 40
1
 10
41.627777
 20
64.276111
 30
0.0
 10
41.627777
 20
56.569877
 30
0.0
 10
41.514762
 20
53.650317
 30
0.0
 10
41.204445
 20
53.340000
 30
0.0
  0
SPLINE
  5
187
100
AcDbEntity
  8
0
 62
7
100
AcDbSpline
 70
8
 71
3
 72
8
 73
4
 74
0
 40
0
 40
0
 40
0
 40
0
 40
1
 40
1
 40
1
 40
1
 10
41.204445
 20
53.340000
 30
0.0
 10
40.918271
 20
53.053826
 30
0.0
 10
39.283768
 20
52.916666
 30
0.0
 10
36.159723
 20
52.916666
 30
0.0
  0
SPLINE
  5
188
100
AcDbEntity
  8
0
 62
7
100
AcDbSpline
 70
8
 71
3
 72
8
 73
4
 74
0
 40
0
 40
0
 40
0
 40
0
 40
1
 40
1
 40
1
 40
1
 10
36.159723
 20
52.916666
 30
0.0
 10
33.035679
 20
52.916666
 30
0.0
 10
31.401172
 20
53.053826
 30
0.0
 10
31.115000
 20
53.340000
 30
0.0
  0
LINE
  5
189
100
AcDbEntity
  8
0
 62
7
100
AcDbLine
 10
31.115000
 20
53.340000
 30
0.0
 11
31.115000
 21
53.340000
 31
0.0
  0
LINE
  5
18a
100
AcDbEntity
  8
0
 62
7
100
AcDbLine
 10
107.950000
 20
58.384722
 30
0.0
 11
107.950000
 21
63.852777
 31
0.0
  0
LINE
  5
18b
100
AcDbEntity
  8
0
 62
7
100
AcDbLine
 10
107.950000
 20
63.852777
 30
0.0
 11
113.594445
 21
63.852777
 31
0.0
  0
LINE
  5
18c
100
AcDbEntity
  8
0
 62
7
100
AcDbLine
 10
113.594445
 20
63.852777
 30
0.0
 11
119.238889
 21
63.852777
 31
0.0
  0
LINE
  5
18d
100
AcDbEntity
  8
0
 62
7
100
AcDbLine
 10
119.238889
 20
63.852777
 30
0.0
 11
119.238889
 21
58.384722
 31
0.0
  0
LINE
  5
18e
100
AcDbEntity
  8
0
 62
7
100
AcDbLine
 10
119.238889
 20
58.384722
 30
0.0
 11
119.238889
 21
52.916666
 31
0.0
  0
LINE
  5
18f
100
AcDbEntity
  8
0
 62
7
100
AcDbLine
 10
119.238889
 20
52.916666
 30
0.0
 11
113.594445
 21
52.916666
 31
0.0
  0
LINE
  5
190
100
AcDbEntity
  8
0
 62
7
100
AcDbLine
 10
113.594445
 20
52.916666
 30
0.0
 11
107.950000
 21
52.916666
 31
0.0
  0
LINE
  5
191
100
AcDbEntity
  8
0
 62
7
100
AcDbLine
 10
107.950000
 20
52.916666
 30
0.0
 11
107.950000
 21
58.384722
 31
0.0
  0
LINE
  5
192
100
AcDbEntity
  8
0
 62
7
100
AcDbLine
 10
107.950000
 20
58.384722
 30
0.0
 11
107.950000
 21
58.384722
 31
0.0
  0
LINE
  5
193
100
AcDbEntity
  8
0
 62
7
100
AcDbLine
 10
97.013889
 20
80.433334
 30
0.0
 11
97.013889
 21
86.077777
 31
0.0
  0
LINE
  5
194
100
AcDbEntity
  8
0
 62
7
100
AcDbLine
 10
97.013889
 20
86.077777
 30
0.0
 11
91.545834
 21
86.077777
 31
0.0
  0
LINE
  5
195
100
AcDbEntity
  8
0
 62
7
100
AcDbLine
 10
91.545834
 20
86.077777
 30
0.0
 11
86.077777
 21
86.077777
 31
0.0
  0
LINE
  5
196
100
AcDbEntity
  8
0
 62
7
100
AcDbLine
 10
86.077777
 20
86.077777
 30
0.0
 11
86.077777
 21
91.545834
 31
0.0
  0
LINE
  5
197
100
AcDbEntity
  8
0
 62
7
100
AcDbLine
 10
86.077777
 20
91.545834
 30
0.0
 11
86.077777
 21
97.013889
 31
0.0
  0
LINE
  5
198
100
AcDbEntity
  8
0
 62
7
100
AcDbLine
 10
86.077777
 20
97.013889
 30
0.0
 11
96.590555
 21
97.013889
 31
0.0
  0
SPLINE
  5
199
100
AcDbEntity
  8
0
 62
7
100
AcDbSpline
 70
8
 71
3
 72
8
 73
4
 74
0
 40
0
 40
0
 40
0
 40
0
 40
1
 40
1
 40
1
 40
1
 10
96.590555
 20
97.013889
 30
0.0
 10
104.296789
 20
97.013889
 30
0.0
 10
107.216349
 20
96.900874
 30
0.0
 10
107.526666
 20
96.590555
 30
0.0
  0
SPLINE
  5
19a
100
AcDbEntity
  8
0
 62
7
100
AcDbSpline
 70
8
 71
3
 72
8
 73
4
 74
0
 40
0
 40
0
 40
0
 40
0
 40
1
 40
1
 40
1
 40
1
 10
107.526666
 20
96.590555
 30
0.0
 10
107.816456
 20
96.300767
 30
0.0
 10
107.950000
 20
94.575802
 30
0.0
 10
107.950000
 20
91.122500
 30
0.0
  0
LINE
  5
19b
100
AcDbEntity
  8
0
 62
7
100
AcDbLine
 10
107.950000
 20
91.122500
 30
0.0
 11
107.950000
 21
86.077777
 31
0.0
  0
LINE
  5
19c
100
AcDbEntity
  8
0
 62
7
100
AcDbLine
 10
107.950000
 20
86.077777
 30
0.0
 11
113.594445
 21
86.077777
 31
0.0
  0
LINE
  5
19d
100
AcDbEntity
  8
0
 62
7
100
AcDbLine
 10
113.594445
 20
86.077777
 30
0.0
 11
119.238889
 21
86.077777
 31
0.0
  0
LINE
  5
19e
100
AcDbEntity
  8
0
 62
7
100
AcDbLine
 10
119.238889
 20
86.077777
 30
0.0
 11
119.238889
 21
80.433334
 31
0.0
  0
LINE
  5
19f
100
AcDbEntity
  8
0
 62
7
100
AcDbLine
 10
119.238889
 20
80.433334
 30
0.0
 11
119.238889
 21
74.788889
 31
0.0
  0
LINE
  5
1a0
100
AcDbEntity
  8
0
 62
7
100
AcDbLine
 10
119.238889
 20
74.788889
 30
0.0
 11
108.126389
 21
74.788889
 31
0.0
  0
LINE
  5
1a1
100
AcDbEntity
  8
0
 62
7
100
AcDbLine
 10
108.126389
 20
74.788889
 30
0.0
 11
97.013889
 21
74.788889
 31
0.0
  0
LINE
  5
1a2
100
AcDbEntity
  8
0
 62
7
100
AcDbLine
 10
97.013889
 20
74.788889
 30
0.0
 11
97.013889
 21
80.433334
 31
0.0
  0
LINE
  5
1a3
100
AcDbEntity
  8
0
 62
7
100
AcDbLine
 10
97.013889
 20
80.433334
 30
0.0
 11
97.013889
 21
80.433334
 31
0.0
  0
SPLINE
  5
1a4
100
AcDbEntity
  8
0
 62
7
100
AcDbSpline
 70
8
 71
3
 72
8
 73
4
 74
0
 40
0
 40
0
 40
0
 40
0
 40
1
 40
1
 40
1
 40
1
 10
64.276111
 20
97.437222
 30
0.0
 10
63.989937
 20
97.723394
 30
0.0
 10
63.852777
 20
99.357901
 30
0.0
 10
63.852777
 20
102.481945
 30
0.0
  0
SPLINE
  5
1a5
100
AcDbEntity
  8
0
 62
7
100
AcDbSpline
 70
8
 71
3
 72
8
 73
4
 74
0
 40
0
 40
0
 40
0
 40
0
 40
1
 40
1
 40
1
 40
1
 10
63.852777
 20
102.481945
 30
0.0
 10
63.852777
 20
105.605987
 30
0.0
 10
63.989937
 20
107.240495
 30
0.0
 10
64.276111
 20
107.526666
 30
0.0
  0
SPLINE
  5
1a6
100
AcDbEntity
  8
0
 62
7
100
AcDbSpline
 70
8
 71
3
 72
8
 73
4
 74
0
 40
0
 40
0
 40
0
 40
0
 40
1
 40
1
 40
1
 40
1
 10
64.276111
 20
107.526666
 30
0.0
 10
64.562285
 20
107.812839
 30
0.0
 10
66.196789
 20
107.950000
 30
0.0
 10
69.320834
 20
107.950000
 30
0.0
  0
SPLINE
  5
1a7
100
AcDbEntity
  8
0
 62
7
100
AcDbSpline
 70
8
 71
3
 72
8
 73
4
 74
0
 40
0
 40
0
 40
0
 40
0
 40
1
 40
1
 40
1
 40
1
 10
69.320834
 20
107.950000
 30
0.0
 10
72.444878
 20
107.950000
 30
0.0
 10
74.079383
 20
107.812839
 30
0.0
 10
74.365555
 20
107.526666
 30
0.0
  0
SPLINE
  5
1a8
100
AcDbEntity
  8
0
 62
7
100
AcDbSpline
 70
8
 71
3
 72
8
 73
4
 74
0
 40
0
 40
0
 40
0
 40
0
 40
1
 40
1
 40
1
 40
1
 10
74.365555
 20
107.526666
 30
0.0
 10
74.655345
 20
107.236879
 30
0.0
 10
74.788889
 20
105.511914
 30
0.0
 10
74.788889
 20
102.058611
 30
0.0
  0
LINE
  5
1a9
100
AcDbEntity
  8
0
 62
7
100
AcDbLine
 10
74.788889
 20
102.058611
 30
0.0
 11
74.788889
 21
97.013889
 31
0.0
  0
LINE
  5
1aa
100
AcDbEntity
  8
0
 62
7
100
AcDbLine
 10
74.788889
 20
97.013889
 30
0.0
 11
69.744166
 21
97.013889
 31
0.0
  0
SPLINE
  5
1ab
100
AcDbEntity
  8
0
 62
7
100
AcDbSpline
 70
8
 71
3
 72
8
 73
4
 74
0
 40
0
 40
0
 40
0
 40
0
 40
1
 40
1
 40
1
 40
1
 10
69.744166
 20
97.013889
 30
0.0
 10
66.290864
 20
97.013889
 30
0.0
 10
64.565900
 20
97.147435
 30
0.0
 10
64.276111
 20
97.437222
 30
0.0
  0
LINE
  5
1ac
100
AcDbEntity
  8
0
 62
7
100
AcDbLine
 10
64.276111
 20
97.437222
 30
0.0
 11
64.276111
 21
97.437222
 31
0.0
  0
SPLINE
  5
1ad
100
AcDbEntity
  8
0
 62
7
100
AcDbSpline
 70
8
 71
3
 72
8
 73
4
 74
0
 40
0
 40
0
 40
0
 40
0
 40
1
 40
1
 40
1
 40
1
 10
108.373334
 20
97.437222
 30
0.0
 10
108.087160
 20
97.723394
 30
0.0
 10
107.950000
 20
99.357901
 30
0.0
 10
107.950000
 20
102.481945
 30
0.0
  0
SPLINE
  5
1ae
100
AcDbEntity
  8
0
 62
7
100
AcDbSpline
 70
8
 71
3
 72
8
 73
4
 74
0
 40
0
 40
0
 40
0
 40
0
 40
1
 40
1
 40
1
 40
1
 10
107.950000
 20
102.481945
 30
0.0
 10
107.950000
 20
105.605987
 30
0.0
 10
108.087160
 20
107.240495
 30
0.0
 10
108.373334
 20
107.526666
 30
0.0
  0
SPLINE
  5
1af
100
AcDbEntity
  8
0
 62
7
100
AcDbSpline
 70
8
 71
3
 72
8
 73
4
 74
0
 40
0
 40
0
 40
0
 40
0
 40
1
 40
1
 40
1
 40
1
 10
108.373334
 20
107.526666
 30
0.0
 10
108.664456
 20
107.817788
 30
0.0
 10
110.427284
 20
107.950000
 30
0.0
 10
114.017777
 20
107.950000
 30
0.0
  0
LINE
  5
1b0
100
AcDbEntity
  8
0
 62
7
100
AcDbLine
 10
114.017777
 20
107.950000
 30
0.0
 11
119.238889
 21
107.950000
 31
0.0
  0
LINE
  5
1b1
100
AcDbEntity
  8
0
 62
7
100
AcDbLine
 10
119.238889
 20
107.950000
 30
0.0
 11
119.238889
 21
102.481945
 31
0.0
  0
LINE
  5
1b2
100
AcDbEntity
  8
0
 62
7
100
AcDbLine
 10
119.238889
 20
102.481945
 30
0.0
 11
119.238889
 21
97.013889
 31
0.0
  0
LINE
  5
1b3
100
AcDbEntity
  8
0
 62
7
100
AcDbLine
 10
119.238889
 20
97.013889
 30
0.0
 11
114.017777
 21
97.013889
 31
0.0
  0
SPLINE
  5
1b4
100
AcDbEntity
  8
0
 62
7
100
AcDbSpline
 70
8
 71
3
 72
8
 73
4
 74
0
 40
0
 40
0
 40
0
 40
0
 40
1
 40
1
 40
1
 40
1
 10
114.017777
 20
97.013889
 30
0.0
 10
110.427284
 20
97.013889
 30
0.0
 10
108.664456
 20
97.146101
 30
0.0
 10
108.373334
 20
97.437222
 30
0.0
  0
LINE
  5
1b5
100
AcDbEntity
  8
0
 62
7
100
AcDbLine
 10
108.373334
 20
97.437222
 30
0.0
 11
108.373334
 21
97.437222
 31
0.0
  0
LINE
  5
1b6
100
AcDbEntity
  8
0
 62
7
100
AcDbLine
 10
30.691666
 20
113.594445
 30
0.0
 11
30.691666
 21
119.238889
 31
0.0
  0
LINE
  5
1b7
100
AcDbEntity
  8
0
 62
7
100
AcDbLine
 10
30.691666
 20
119.238889
 30
0.0
 11
36.159723
 21
119.238889
 31
0.0
  0
LINE
  5
1b8
100
AcDbEntity
  8
0
 62
7
100
AcDbLine
 10
36.159723
 20
119.238889
 30
0.0
 11
41.627777
 21
119.238889
 31
0.0
  0
LINE
  5
1b9
100
AcDbEntity
  8
0
 62
7
100
AcDbLine
 10
41.627777
 20
119.238889
 30
0.0
 11
41.627777
 21
113.594445
 31
0.0
  0
LINE
  5
1ba
100
AcDbEntity
  8
0
 62
7
100
AcDbLine
 10
41.627777
 20
113.594445
 30
0.0
 11
41.627777
 21
107.950000
 31
0.0
  0
LINE
  5
1bb
100
AcDbEntity
  8
0
 62
7
100
AcDbLine
 10
41.627777
 20
107.950000
 30
0.0
 11
36.159723
 21
107.950000
 31
0.0
  0
LINE
  5
1bc
100
AcDbEntity
  8
0
 62
7
100
AcDbLine
 10
36.159723
 20
107.950000
 30
0.0
 11
30.691666
 21
107.950000
 31
0.0
  0
LINE
  5
1bd
100
AcDbEntity
  8
0
 62
7
100
AcDbLine
 10
30.691666
 20
107.950000
 30
0.0
 11
30.691666
 21
113.594445
 31
0.0
  0
LINE
  5
1be
100
AcDbEntity
  8
0
 62
7
100
AcDbLine
 10
30.691666
 20
113.594445
 30
0.0
 11
30.691666
 21
113.594445
 31
0.0
  0
LINE
  5
1bf
100
AcDbEntity
  8
0
 62
7
100
AcDbLine
 10
52.916666
 20
113.594445
 30
0.0
 11
52.916666
 21
119.238889
 31
0.0
  0
LINE
  5
1c0
100
AcDbEntity
  8
0
 62
7
100
AcDbLine
 10
52.916666
 20
119.238889
 30
0.0
 11
58.384723
 21
119.238889
 31
0.0
  0
LINE
  5
1c1
100
AcDbEntity
  8
0
 62
7
100
AcDbLine
 10
58.384723
 20
119.238889
 30
0.0
 11
63.852777
 21
119.238889
 31
0.0
  0
LINE
  5
1c2
100
AcDbEntity
  8
0
 62
7
100
AcDbLine
 10
63.852777
 20
119.238889
 30
0.0
 11
63.852777
 21
114.017777
 31
0.0
  0
SPLINE
  5
1c3
100
AcDbEntity
  8
0
 62
7
100
AcDbSpline
 70
8
 71
3
 72
8
 73
4
 74
0
 40
0
 40
0
 40
0
 40
0
 40
1
 40
1
 40
1
 40
1
 10
63.852777
 20
114.017777
 30
0.0
 10
63.852777
 20
110.427284
 30
0.0
 10
63.720567
 20
108.664454
 30
0.0
 10
63.429445
 20
108.373334
 30
0.0
  0
SPLINE
  5
1c4
100
AcDbEntity
  8
0
 62
7
100
AcDbSpline
 70
8
 71
3
 72
8
 73
4
 74
0
 40
0
 40
0
 40
0
 40
0
 40
1
 40
1
 40
1
 40
1
 10
63.429445
 20
108.373334
 30
0.0
 10
63.139655
 20
108.083546
 30
0.0
 10
61.414691
 20
107.950000
 30
0.0
 10
57.961389
 20
107.950000
 30
0.0
  0
LINE
  5
1c5
100
AcDbEntity
  8
0
 62
7
100
AcDbLine
 10
57.961389
 20
107.950000
 30
0.0
 11
52.916666
 21
107.950000
 31
0.0
  0
LINE
  5
1c6
100
AcDbEntity
  8
0
 62
7
100
AcDbLine
 10
52.916666
 20
107.950000
 30
0.0
 11
52.916666
 21
113.594445
 31
0.0
  0
LINE
  5
1c7
100
AcDbEntity
  8
0
 62
7
100
AcDbLine
 10
52.916666
 20
113.594445
 30
0.0
 11
52.916666
 21
113.594445
 31
0.0
  0
SPLINE
  5
1c8
100
AcDbEntity
  8
0
 62
7
100
AcDbSpline
 70
8
 71
3
 72
8
 73
4
 74
0
 40
0
 40
0
 40
0
 40
0
 40
1
 40
1
 40
1
 40
1
 10
75.212223
 20
108.373334
 30
0.0
 10
74.921100
 20
108.664454
 30
0.0
 10
74.788889
 20
110.427284
 30
0.0
 10
74.788889
 20
114.017777
 30
0.0
  0
LINE
  5
1c9
100
AcDbEntity
  8
0
 62
7
100
AcDbLine
 10
74.788889
 20
114.017777
 30
0.0
 11
74.788889
 21
119.238889
 31
0.0
  0
LINE
  5
1ca
100
AcDbEntity
  8
0
 62
7
100
AcDbLine
 10
74.788889
 20
119.238889
 30
0.0
 11
80.433334
 21
119.238889
 31
0.0
  0
LINE
  5
1cb
100
AcDbEntity
  8
0
 62
7
100
AcDbLine
 10
80.433334
 20
119.238889
 30
0.0
 11
86.077777
 21
119.238889
 31
0.0
  0
LINE
  5
1cc
100
AcDbEntity
  8
0
 62
7
100
AcDbLine
 10
86.077777
 20
119.238889
 30
0.0
 11
86.077777
 21
113.594445
 31
0.0
  0
LINE
  5
1cd
100
AcDbEntity
  8
0
 62
7
100
AcDbLine
 10
86.077777
 20
113.594445
 30
0.0
 11
86.077777
 21
107.950000
 31
0.0
  0
LINE
  5
1ce
100
AcDbEntity
  8
0
 62
7
100
AcDbLine
 10
86.077777
 20
107.950000
 30
0.0
 11
80.856666
 21
107.950000
 31
0.0
  0
SPLINE
  5
1cf
100
AcDbEntity
  8
0
 62
7
100
AcDbSpline
 70
8
 71
3
 72
8
 73
4
 74
0
 40
0
 40
0
 40
0
 40
0
 40
1
 40
1
 40
1
 40
1
 10
80.856666
 20
107.950000
 30
0.0
 10
77.266173
 20
107.950000
 30
0.0
 10
75.503345
 20
108.082213
 30
0.0
 10
75.212223
 20
108.373334
 30
0.0
  0
LINE
  5
1d0
100
AcDbEntity
  8
0
 62
7
100
AcDbLine
 10
75.212223
 20
108.373334
 30
0.0
 11
75.212223
 21
108.373334
 31
0.0
  0
LINE
  5
1d1
100
AcDbEntity
  8
0
 62
7
100
AcDbLine
 10
97.013889
 20
113.594445
 30
0.0
 11
97.013889
 21
119.238889
 31
0.0
  0
LINE
  5
1d2
100
AcDbEntity
  8
0
 62
7
100
AcDbLine
 10
97.013889
 20
119.238889
 30
0.0
 11
102.481945
 21
119.238889
 31
0.0
  0
LINE
  5
1d3
100
AcDbEntity
  8
0
 62
7
100
AcDbLine
 10
102.481945
 20
119.238889
 30
0.0
 11
107.950000
 21
119.238889
 31
0.0
  0
LINE
  5
1d4
100
AcDbEntity
  8
0
 62
7
100
AcDbLine
 10
107.950000
 20
119.238889
 30
0.0
 11
107.950000
 21
114.017777
 31
0.0
  0
SPLINE
  5
1d5
100
AcDbEntity
  8
0
 62
7
100
AcDbSpline
 70
8
 71
3
 72
8
 73
4
 74
0
 40
0
 40
0
 40
0
 40
0
 40
1
 40
1
 40
1
 40
1
 10
107.950000
 20
114.017777
 30
0.0
 10
107.950000
 20
110.427284
 30
0.0
 10
107.817790
 20
108.664454
 30
0.0
 10
107.526666
 20
108.373334
 30
0.0
  0
SPLINE
  5
1d6
100
AcDbEntity
  8
0
 62
7
100
AcDbSpline
 70
8
 71
3
 72
8
 73
4
 74
0
 40
0
 40
0
 40
0
 40
0
 40
1
 40
1
 40
1
 40
1
 10
107.526666
 20
108.373334
 30
0.0
 10
107.236878
 20
108.083546
 30
0.0
 10
105.511914
 20
107.950000
 30
0.0
 10
102.058611
 20
107.950000
 30
0.0
  0
LINE
  5
1d7
100
AcDbEntity
  8
0
 62
7
100
AcDbLine
 10
102.058611
 20
107.950000
 30
0.0
 11
97.013889
 21
107.950000
 31
0.0
  0
LINE
  5
1d8
100
AcDbEntity
  8
0
 62
7
100
AcDbLine
 10
97.013889
 20
107.950000
 30
0.0
 11
97.013889
 21
113.594445
 31
0.0
  0
LINE
  5
1d9
100
AcDbEntity
  8
0
 62
7
100
AcDbLine
 10
97.013889
 20
113.594445
 30
0.0
 11
97.013889
 21
113.594445
 31
0.0
  0
ENDSEC
  0
SECTION
  2
OBJECTS
  0
DICTIONARY
  5
C
330
0
100
AcDbDictionary
  3
ACAD_GROUP
350
D
  3
ACAD_MLINESTYLE
350
17
  0
DICTIONARY
  5
D
330
C
100
AcDbDictionary
  0
DICTIONARY
  5
1A
330
C
100
AcDbDictionary
  0
DICTIONARY
  5
17
330
C
100
AcDbDictionary
  3
STANDARD
350
18
  0
DICTIONARY
  5
19
330
C
100
AcDbDictionary
  0
ENDSEC
  0
EOF
